<svg width="70" height="70" viewBox="0 0 70 70" fill="none" xmlns="http://www.w3.org/2000/svg">
<g clip-path="url(#clip0_20439_57122)">
<path d="M69.9839 65.0352L64.4845 34.7367C64.4297 34.4343 64.2421 34.1723 63.9733 34.0229L50.1316 26.3243C49.952 26.2242 49.7506 26.1844 49.5527 26.1997L52.071 58.6852L51.9866 58.723L68.552 66.1546C68.6868 66.2149 68.8301 66.2447 68.9727 66.2447C69.1984 66.2447 69.4221 66.1705 69.606 66.0265C69.9065 65.7919 70.0518 65.4102 69.9839 65.0352Z" fill="#C7C7C7"/>
<path d="M35.0002 33.6842L20.8436 26.3108C20.6739 26.2223 20.4858 26.1862 20.3005 26.1987C20.3496 26.1957 20.399 26.1959 20.4479 26.1998L17.9297 58.6853L34.5795 66.1548C34.7139 66.215 34.8573 66.2449 35.0002 66.2449V33.6842Z" fill="#C7C7C7"/>
<path d="M20.4477 26.1998C20.2498 26.1845 20.0485 26.2243 19.8688 26.3242L6.02697 34.0229C5.75818 34.1723 5.5706 34.4341 5.51578 34.7367L0.0165263 65.0351C-0.0515598 65.41 0.0939092 65.7918 0.394281 66.0266C0.578441 66.1706 0.801977 66.2448 1.02756 66.2448C1.17016 66.2448 1.31358 66.2152 1.44825 66.1547L17.9234 58.7636L20.4477 26.1998Z" fill="#E9E9E9"/>
<path d="M49.5522 26.1991C49.4161 26.2096 49.2814 26.2459 49.1566 26.3109L35 33.6842V66.2449H35.0001C35.143 66.2449 35.2866 66.2151 35.4208 66.1548L52.0706 58.6853L49.5522 26.1991Z" fill="#E9E9E9"/>
<path d="M3.84906 43.9186L2.73193 50.0736L19.2741 41.3364L19.6582 36.3819L19.7219 35.5602L3.84906 43.9186Z" fill="#D4D4D4"/>
<path d="M19.4231 39.4153L19.2742 41.3365L2.73204 50.0736L0.0165263 65.0352C-0.0515598 65.4101 0.0939092 65.7918 0.394281 66.0267C0.578441 66.1706 0.801977 66.2449 1.02756 66.2449C1.17016 66.2449 1.31358 66.2152 1.44825 66.1548L17.9234 58.7636L19.4231 39.4153Z" fill="#E9E9E9"/>
<path d="M35.0043 37.7454L19.7222 35.5602L19.2744 41.3364L35.0002 65.2184V56.5342L25.6163 41.7579L35.0043 42.8808V37.7454Z" fill="#A3A3A3"/>
<path d="M62.8836 33.417L56.2343 29.7186L49.9395 31.1895L50.0182 32.2061L50.3291 36.2166L62.8836 33.417Z" fill="#A3A3A3"/>
<path d="M50.8873 43.4187L50.2912 35.7284L49.9394 31.1895L35.0044 37.7454V42.8808L44.7601 38.6385L50.8873 43.4187Z" fill="#D4D4D4"/>
<path d="M69.9838 65.0351L68.6026 57.4245L50.3291 36.2166L50.8875 43.4186L69.6275 66.0075C69.9125 65.7714 70.0501 65.4006 69.9838 65.0351Z" fill="#A3A3A3"/>
<path d="M35.0658 3.755C27.1411 3.755 20.6938 10.1969 20.6938 18.1151C20.6938 23.0132 23.0193 28.272 27.6058 33.7451C30.9744 37.7651 34.2973 40.3506 34.4371 40.4587C34.6222 40.6019 34.844 40.6734 35.0659 40.6734C35.2876 40.6734 35.5095 40.6019 35.6947 40.4587C35.8344 40.3506 39.1573 37.7651 42.526 33.7451C47.1125 28.272 49.4379 23.0134 49.4379 18.1151C49.4377 10.1969 42.9904 3.755 35.0658 3.755ZM40.3882 18.115C40.3882 21.052 38.0052 23.4331 35.0658 23.4331C32.1263 23.4331 29.7433 21.0521 29.7433 18.115C29.7433 15.1779 32.1263 12.7969 35.0658 12.7969C38.0052 12.7969 40.3882 15.178 40.3882 18.115Z" fill="#FF4A4A"/>
<path d="M35.0657 3.755C34.4376 3.755 33.8189 3.79575 33.2119 3.87422C40.2643 4.78573 45.7302 10.8245 45.7302 18.1151C45.7302 23.0132 43.4047 28.272 38.8182 33.7451C36.6519 36.3302 34.5061 38.3207 33.2121 39.4421C33.9304 40.0644 34.3873 40.4202 34.4371 40.4587C34.6222 40.6019 34.8439 40.6734 35.0658 40.6734C35.2876 40.6734 35.5095 40.6019 35.6946 40.4587C35.8343 40.3506 39.1573 37.7651 42.5259 33.7451C47.1124 28.272 49.4379 23.0134 49.4379 18.1151C49.4376 10.1969 42.9903 3.755 35.0657 3.755Z" fill="#E7343F"/>
<path d="M35.4208 66.1548L41.6121 63.3772L35 56.5343V66.2449H35.0001C35.143 66.2449 35.2864 66.2152 35.4208 66.1548Z" fill="#D4D4D4"/>
<path d="M64.484 34.7368C64.4291 34.4343 64.2416 34.1724 63.9728 34.0229L62.8831 33.4169L50.3286 36.2165L68.6019 57.4245L64.484 34.7368Z" fill="#C7C7C7"/>
<path d="M34.9998 66.2449C34.9999 66.2449 34.9999 66.2449 34.9998 66.2449V65.2184L19.2741 41.3364L17.9292 58.6854L34.579 66.1549C34.7134 66.2152 34.8568 66.2449 34.9998 66.2449Z" fill="#C7C7C7"/>
</g>
<defs>
<clipPath id="clip0_20439_57122">
<rect width="70" height="70" fill="white"/>
</clipPath>
</defs>
</svg>
