<svg width="50" height="50" viewBox="0 0 50 50" fill="none" xmlns="http://www.w3.org/2000/svg">
<path d="M23.6426 48.7988C36.6958 48.7988 47.2851 38.1097 47.2851 24.9212C47.2851 11.7327 36.6958 1.03711 23.6426 1.03711C10.5893 1.03711 0 11.7327 0 24.9212C0 38.1097 10.5829 48.7988 23.6426 48.7988Z" fill="url(#paint0_linear_20439_65964)"/>
<path d="M45.1426 21.0781H15.1311C14.2883 21.0781 13.6128 21.7633 13.6128 22.6117V41.0468C13.6128 41.8951 14.2947 42.5803 15.1311 42.5803H45.1426C45.9854 42.5803 46.6609 41.8951 46.6609 41.0468V22.6117C46.6609 21.7633 45.979 21.0781 45.1426 21.0781Z" fill="url(#paint1_linear_20439_65964)"/>
<path d="M33.3441 23.1467V41.0533C33.3441 41.4644 33.1832 41.8494 32.9002 42.1431C32.6171 42.4302 32.2247 42.5933 31.8258 42.5933H5.98946C5.58416 42.5933 5.19816 42.4302 4.91509 42.1431C4.63203 41.8559 4.47119 41.4644 4.47119 41.0533V21.7698C4.47119 21.5545 4.51623 21.3391 4.59986 21.1433C4.68993 20.9476 4.81859 20.7714 4.97299 20.6213L16.3793 10.3759C16.656 10.1279 17.0034 9.9909 17.3765 9.98438C17.7432 9.98438 18.097 10.1084 18.3801 10.3498L33.2862 23.1402H33.3505L33.3441 23.1467Z" fill="url(#paint2_linear_20439_65964)"/>
<path d="M33.3439 23.1466V21.0779L18.5986 8.37891H30.2687C30.6419 8.37891 30.9957 8.50942 31.2852 8.74435L48.0183 22.5462C48.0698 22.5919 48.1084 22.6506 48.1213 22.7159C48.1406 22.7811 48.1341 22.8529 48.1148 22.9182C48.0955 22.9834 48.0505 23.0356 47.999 23.0813C47.9411 23.1205 47.8768 23.1466 47.8125 23.1466H33.3503H33.3439Z" fill="url(#paint3_linear_20439_65964)"/>
<path d="M22.7997 29.3135H14.5714C14.3462 29.3135 14.1597 29.5027 14.1597 29.7311V42.5868H23.2114V29.7311C23.2114 29.5027 23.0248 29.3135 22.7997 29.3135Z" fill="url(#paint4_linear_20439_65964)"/>
<path d="M46.6675 23.1465H33.3569V26.2658H46.6675V23.1465Z" fill="url(#paint5_linear_20439_65964)"/>
<path d="M19.3127 8.99232L18.6243 8.37891L18.6115 8.39196L18.5986 8.37891L17.6336 9.24683L2.38656 22.5397C2.33509 22.5854 2.29649 22.6441 2.28363 22.7094C2.26433 22.7746 2.27076 22.8464 2.29006 22.9051C2.30936 22.9704 2.35439 23.0226 2.40586 23.0618C2.45733 23.1009 2.52166 23.1205 2.59243 23.1205L4.16216 23.1401L18.6243 10.565L33.2795 23.1401H33.3438L35.7113 23.1074L19.3127 8.99232Z" fill="url(#paint6_linear_20439_65964)"/>
<path d="M18.5538 24.7058C20.1557 24.7058 21.4552 23.3941 21.4552 21.7757C21.4552 20.1574 20.1557 18.8457 18.5538 18.8457C16.9519 18.8457 15.6523 20.1574 15.6523 21.7757C15.6523 23.3941 16.9519 24.7058 18.5538 24.7058Z" fill="url(#paint7_linear_20439_65964)"/>
<path d="M11.3934 29.3132H6.755C6.52983 29.3132 6.34326 29.5024 6.34326 29.7308V37.1962C6.34326 37.4246 6.52983 37.6139 6.755 37.6139H11.3934C11.6186 37.6139 11.8052 37.4246 11.8052 37.1962V29.7243C11.8052 29.4959 11.6186 29.3066 11.3934 29.3066V29.3132Z" fill="url(#paint8_linear_20439_65964)"/>
<path d="M30.1469 32.0928H25.5084C25.2832 32.0928 25.0967 32.282 25.0967 32.5104V37.1959C25.0967 37.4243 25.2832 37.6135 25.5084 37.6135H30.1469C30.372 37.6135 30.5586 37.4243 30.5586 37.1959V32.5104C30.5586 32.282 30.372 32.0928 30.1469 32.0928Z" fill="url(#paint9_linear_20439_65964)"/>
<path d="M30.1469 29.333H25.5084C25.2832 29.333 25.0967 29.5223 25.0967 29.7507V30.5272C25.0967 30.7556 25.2832 30.9449 25.5084 30.9449H30.1469C30.372 30.9449 30.5586 30.7556 30.5586 30.5272V29.7507C30.5586 29.5223 30.372 29.333 30.1469 29.333Z" fill="url(#paint10_linear_20439_65964)"/>
<path d="M46.5903 34.8602C46.4809 34.4164 45.8569 34.4164 45.7475 34.8602L45.3873 36.3611C45.3487 36.5177 45.2264 36.6417 45.0656 36.6808L43.5795 37.0463C43.1356 37.1572 43.1356 37.7902 43.5795 37.8946L45.0656 38.2601C45.2264 38.2992 45.3487 38.4232 45.3873 38.5798L45.7475 40.0807C45.8569 40.5245 46.4809 40.5245 46.5903 40.0807L46.9506 38.5798C46.9892 38.4232 47.1114 38.2992 47.2723 38.2601L48.7584 37.8946C49.2023 37.7837 49.2023 37.1507 48.7584 37.0463L47.2723 36.6808C47.1114 36.6417 46.9892 36.5177 46.9506 36.3611L46.5903 34.8602Z" fill="url(#paint11_linear_20439_65964)"/>
<path d="M21.2363 44.4393C21.1269 43.9955 20.5029 43.9955 20.3935 44.4393L20.0333 45.9402C19.9947 46.0968 19.8724 46.2208 19.7116 46.2599L18.2255 46.6254C17.7816 46.7363 17.7816 47.3693 18.2255 47.4737L19.7116 47.8392C19.8724 47.8783 19.9947 48.0023 20.0333 48.1589L20.3935 49.6598C20.5029 50.1036 21.1269 50.1036 21.2363 49.6598L21.5966 48.1589C21.6352 48.0023 21.7574 47.8783 21.9182 47.8392L23.4044 47.4737C23.8483 47.3628 23.8483 46.7298 23.4044 46.6254L21.9182 46.2599C21.7574 46.2208 21.6352 46.0968 21.5966 45.9402L21.2363 44.4393Z" fill="url(#paint12_linear_20439_65964)"/>
<path d="M7.43065 6.75371C7.32128 6.30996 6.69725 6.30996 6.58788 6.75371L6.22761 8.25462C6.18901 8.41124 6.06678 8.53523 5.90594 8.57438L4.41984 8.93982C3.97594 9.05076 3.97594 9.68375 4.41984 9.78817L5.90594 10.1536C6.06678 10.1928 6.18901 10.3167 6.22761 10.4734L6.58788 11.9743C6.69725 12.418 7.32128 12.418 7.43065 11.9743L7.79091 10.4734C7.82951 10.3167 7.95175 10.1928 8.11258 10.1536L9.59869 9.78817C10.0426 9.67723 10.0426 9.04423 9.59869 8.93982L8.11258 8.57438C7.95175 8.53523 7.82951 8.41124 7.79091 8.25462L7.43065 6.75371Z" fill="url(#paint13_linear_20439_65964)"/>
<path d="M19.1973 4.77652C19.7441 4.77652 20.188 4.32625 20.188 3.77156C20.188 3.21688 19.7441 2.7666 19.1973 2.7666C18.6504 2.7666 18.2065 3.21688 18.2065 3.77156C18.2065 4.32625 18.6504 4.77652 19.1973 4.77652Z" stroke="url(#paint14_linear_20439_65964)" stroke-width="4.11"/>
<path d="M49.8522 15.0934C50.0774 14.9303 50.0388 14.5779 49.7879 14.467L48.0766 13.6969C47.8193 13.586 47.5427 13.7883 47.5748 14.0689L47.7743 15.9548C47.8064 16.2354 48.1217 16.379 48.3468 16.2093L49.8651 15.0934H49.8522Z" fill="url(#paint15_linear_20439_65964)"/>
<path d="M38.1371 44.1393C37.8669 44.0675 37.6289 44.322 37.6996 44.5895L38.2079 46.4102C38.2851 46.6778 38.6196 46.7691 38.8126 46.5668L40.1186 45.2095C40.3116 45.0072 40.2151 44.6678 39.9513 44.6026L38.1371 44.1393Z" fill="url(#paint16_linear_20439_65964)"/>
<path d="M3.53175 47.4543C4.07859 47.4543 4.52249 47.004 4.52249 46.4493C4.52249 45.8946 4.07859 45.4443 3.53175 45.4443C2.98492 45.4443 2.54102 45.8946 2.54102 46.4493C2.54102 47.004 2.98492 47.4543 3.53175 47.4543Z" stroke="url(#paint17_linear_20439_65964)" stroke-width="4.11"/>
<path d="M42.7368 3.42569C41.6624 2.33589 40.3822 1.4745 38.9797 0.887187C37.5708 0.299873 36.0654 -0.00683594 34.5472 -0.00683594C33.0289 -0.00683594 31.517 0.293347 30.1146 0.887187C28.7121 1.4745 27.4319 2.33589 26.3575 3.42569C25.3217 4.45023 24.4983 5.67053 23.9386 7.02136C23.3789 8.37218 23.0894 9.82089 23.0894 11.2826C23.0894 14.2518 24.2216 17.3124 26.3575 19.9618L32.971 28.6215C33.1575 28.8629 33.3956 29.0652 33.6722 29.1957C33.9488 29.3328 34.2448 29.4045 34.5536 29.4045C34.8624 29.4045 35.1583 29.3328 35.435 29.1957C35.7116 29.0587 35.9496 28.8629 36.1362 28.6215L42.7497 19.9618C44.8855 17.3124 46.0178 14.2518 46.0178 11.2826C46.0178 9.82089 45.7347 8.36565 45.175 7.02136C44.6153 5.67053 43.7919 4.45023 42.7561 3.42569H42.7368Z" fill="#FF4A4A"/>
<path d="M34.5469 16.3792C37.1975 16.3792 39.3526 14.2061 39.3526 11.5241C39.3526 8.84201 37.2039 6.66895 34.5469 6.66895C31.89 6.66895 29.7412 8.84201 29.7412 11.5241C29.7412 14.2061 31.89 16.3792 34.5469 16.3792Z" fill="white"/>
<defs>
<linearGradient id="paint0_linear_20439_65964" x1="23.456" y1="-6.73501" x2="23.9525" y2="77.1268" gradientUnits="userSpaceOnUse">
<stop stop-color="white" stop-opacity="0"/>
<stop offset="1" stop-color="#B5B5B5"/>
</linearGradient>
<linearGradient id="paint1_linear_20439_65964" x1="30.4553" y1="32.2697" x2="52.1494" y2="61.0915" gradientUnits="userSpaceOnUse">
<stop stop-color="#5E5E5E"/>
<stop offset="1" stop-color="#F8F8F8"/>
</linearGradient>
<linearGradient id="paint2_linear_20439_65964" x1="44.3322" y1="60.2976" x2="2.98241" y2="16.1972" gradientUnits="userSpaceOnUse">
<stop stop-color="#5E5E5E"/>
<stop offset="1" stop-color="#F8F8F8"/>
</linearGradient>
<linearGradient id="paint3_linear_20439_65964" x1="30.9893" y1="21.8284" x2="37.2671" y2="5.91392" gradientUnits="userSpaceOnUse">
<stop stop-color="#5E5E5E"/>
<stop offset="1" stop-color="#F8F8F8"/>
</linearGradient>
<linearGradient id="paint4_linear_20439_65964" x1="18.6823" y1="29.3135" x2="18.6823" y2="42.5868" gradientUnits="userSpaceOnUse">
<stop stop-color="#5E5E5E"/>
<stop offset="1" stop-color="#949494"/>
</linearGradient>
<linearGradient id="paint5_linear_20439_65964" x1="38.0468" y1="25.7241" x2="27.9067" y2="30.8341" gradientUnits="userSpaceOnUse">
<stop stop-color="#5E5E5E"/>
<stop offset="1" stop-color="#F8F8F8"/>
</linearGradient>
<linearGradient id="paint6_linear_20439_65964" x1="18.6565" y1="21.4695" x2="13.7057" y2="0.108854" gradientUnits="userSpaceOnUse">
<stop stop-color="#5E5E5E"/>
<stop offset="1" stop-color="#F8F8F8"/>
</linearGradient>
<linearGradient id="paint7_linear_20439_65964" x1="14.1727" y1="19.0545" x2="26.7561" y2="26.6409" gradientUnits="userSpaceOnUse">
<stop stop-color="#5E5E5E"/>
<stop offset="1" stop-color="#F8F8F8"/>
</linearGradient>
<linearGradient id="paint8_linear_20439_65964" x1="9.071" y1="94.7465" x2="9.071" y2="37.6139" gradientUnits="userSpaceOnUse">
<stop stop-color="#5E5E5E"/>
<stop offset="1" stop-color="#949494"/>
</linearGradient>
<linearGradient id="paint9_linear_20439_65964" x1="27.8244" y1="32.0928" x2="27.8244" y2="37.6135" gradientUnits="userSpaceOnUse">
<stop stop-color="#5E5E5E"/>
<stop offset="1" stop-color="#949494"/>
</linearGradient>
<linearGradient id="paint10_linear_20439_65964" x1="27.8244" y1="29.333" x2="27.8244" y2="30.9449" gradientUnits="userSpaceOnUse">
<stop stop-color="#5E5E5E"/>
<stop offset="1" stop-color="#949494"/>
</linearGradient>
<linearGradient id="paint11_linear_20439_65964" x1="44.8211" y1="40.1003" x2="50.3406" y2="29.6846" gradientUnits="userSpaceOnUse">
<stop stop-color="#5E5E5E"/>
<stop offset="1" stop-color="#F8F8F8"/>
</linearGradient>
<linearGradient id="paint12_linear_20439_65964" x1="19.4671" y1="49.6729" x2="24.9866" y2="39.2637" gradientUnits="userSpaceOnUse">
<stop stop-color="#5E5E5E"/>
<stop offset="1" stop-color="#F8F8F8"/>
</linearGradient>
<linearGradient id="paint13_linear_20439_65964" x1="5.66148" y1="11.9939" x2="11.1744" y2="1.57803" gradientUnits="userSpaceOnUse">
<stop stop-color="#5E5E5E"/>
<stop offset="1" stop-color="#F8F8F8"/>
</linearGradient>
<linearGradient id="paint14_linear_20439_65964" x1="18.0135" y1="6.06861" x2="19.6253" y2="3.02691" gradientUnits="userSpaceOnUse">
<stop stop-color="#5E5E5E"/>
<stop offset="1" stop-color="#F8F8F8"/>
</linearGradient>
<linearGradient id="paint15_linear_20439_65964" x1="47.3368" y1="14.6954" x2="51.8832" y2="16.4717" gradientUnits="userSpaceOnUse">
<stop stop-color="#5E5E5E"/>
<stop offset="1" stop-color="#F8F8F8"/>
</linearGradient>
<linearGradient id="paint16_linear_20439_65964" x1="39.4431" y1="46.3449" x2="37.8984" y2="41.679" gradientUnits="userSpaceOnUse">
<stop stop-color="#5E5E5E"/>
<stop offset="1" stop-color="#F8F8F8"/>
</linearGradient>
<linearGradient id="paint17_linear_20439_65964" x1="2.34802" y1="48.7463" x2="3.95978" y2="45.7046" gradientUnits="userSpaceOnUse">
<stop stop-color="#5E5E5E"/>
<stop offset="1" stop-color="#F8F8F8"/>
</linearGradient>
</defs>
</svg>
