<svg width="1130" height="150" viewBox="0 0 1130 150" fill="none" xmlns="http://www.w3.org/2000/svg">
<g clip-path="url(#clip0_12457_183834)">
<mask id="mask0_12457_183834" style="mask-type:luminance" maskUnits="userSpaceOnUse" x="498" y="-49" width="624" height="542">
<path d="M565.349 -48.9998L498 411.429L1053.85 492.736L1121.2 32.3065L565.349 -48.9998Z" fill="white"/>
</mask>
<g mask="url(#mask0_12457_183834)">
<path d="M1089.09 344.161C1088.75 344.548 1055.27 383.237 1013.04 411.837C988.213 428.647 965.26 438.738 944.817 441.829C919.211 445.7 897.499 438.549 880.284 420.572C871.764 411.675 866.181 401.209 863.218 388.576C860.574 377.303 860.089 364.526 861.734 349.514C864.794 321.607 874.611 290.98 885.004 258.554C886.85 252.797 888.758 246.844 890.602 240.978C900.605 209.151 911.245 172.47 910.845 139.913C910.417 105.005 897.316 78.939 870.794 60.2244C842.838 40.4979 807.092 36.094 764.548 47.1357C730.471 55.98 691.985 74.6943 650.16 102.758C612.939 127.733 579.912 155.642 558.761 174.657C535.842 195.262 521.542 210.151 521.4 210.299L520.921 209.839C521.063 209.691 535.375 194.788 558.312 174.168C579.48 155.137 612.534 127.204 649.789 102.206C691.677 74.1006 730.231 55.3555 764.381 46.4921C784.675 41.2254 803.621 39.4339 820.694 41.1677C839.488 43.0764 856.473 49.3054 871.178 59.681C885.178 69.5602 895.63 81.7066 902.243 95.7826C908.272 108.615 911.303 123.047 911.51 139.904C911.91 172.559 901.255 209.301 891.236 241.177C889.392 247.046 887.483 252.999 885.637 258.757C875.254 291.15 865.445 321.747 862.395 349.586C858.949 381.018 864.786 403.428 880.764 420.112C897.821 437.923 919.338 445.009 944.717 441.171C965.062 438.095 987.923 428.04 1012.67 411.286C1054.82 382.737 1088.25 344.114 1088.58 343.727L1089.09 344.161Z" fill="white" fill-opacity="0.15"/>
<path d="M1089.39 340.606C1089.06 340.981 1055.96 378.435 1014.02 406.039C989.374 422.265 966.532 431.966 946.135 434.874C920.589 438.517 898.83 431.462 881.464 413.907C872.927 405.212 867.248 394.993 864.101 382.667C861.294 371.67 860.578 359.215 861.915 344.588C864.399 317.403 873.46 287.623 883.053 256.095C884.728 250.592 886.46 244.902 888.131 239.296C897.336 208.427 907.073 172.862 906.082 141.436C905.019 107.709 891.709 82.5933 865.393 64.655C837.696 45.7755 802.411 41.88 760.519 53.077C726.876 62.0689 688.974 80.7366 647.864 108.562C610.943 133.553 578.576 161.182 557.925 179.96C535.023 200.785 520.855 215.797 520.328 216.709L519.732 216.414C520.095 215.66 534.246 200.607 557.264 179.663C577.976 160.817 610.443 133.088 647.492 108.011C688.663 80.1443 726.633 61.4455 760.348 52.4343C780.335 47.092 799.017 45.1462 815.873 46.6507C834.417 48.3057 851.204 54.1783 865.767 64.1051C879.662 73.5757 890.121 85.2557 896.857 98.8207C902.998 111.188 906.233 125.121 906.747 141.415C907.74 172.94 897.987 208.567 888.768 239.486C887.096 245.093 885.364 250.784 883.69 256.288C874.106 287.783 865.054 317.531 862.577 344.648C859.779 375.276 865.931 397.135 881.938 413.44C920.931 452.857 975.091 430.87 1013.66 405.483C1055.52 377.928 1088.56 340.541 1088.89 340.167L1089.39 340.606Z" fill="white" fill-opacity="0.15"/>
<path d="M1089.69 337.051C1089.36 337.415 1056.58 373.706 1014.9 400.351C990.407 416.012 967.673 425.329 947.332 428.042C921.86 431.441 900.095 424.442 882.643 407.242C874.054 398.777 868.25 388.827 864.9 376.824C861.911 366.117 860.955 353.989 861.976 339.75C863.874 313.289 872.195 284.335 881.004 253.68C882.505 248.454 884.058 243.049 885.556 237.727C904.561 170.201 916.907 106.492 859.992 69.0857C832.557 51.0545 797.735 47.6676 756.496 59.0192C723.288 68.1598 685.969 86.7814 645.575 114.367C608.786 139.49 576.921 166.996 556.668 185.648C534.186 206.351 519.857 221.832 519.202 223.191L518.603 222.903C520.081 219.833 575.65 161.314 645.2 113.818C685.655 86.1908 723.041 67.5382 756.32 58.378C776.001 52.9606 794.417 50.86 811.057 52.1348C829.349 53.5361 845.936 59.0523 860.357 68.53C874.146 77.5925 884.612 88.8108 891.463 101.873C897.71 113.783 901.14 127.226 901.949 142.969C902.533 154.337 901.657 166.287 899.892 178.356C896.936 198.571 891.481 219.129 886.197 237.907C884.698 243.231 883.145 248.636 881.643 253.864C872.844 284.483 864.533 313.405 862.639 339.797C860.5 369.615 867.005 390.896 883.11 406.768C922.304 445.396 976.218 424.295 1014.54 399.791C1056.14 373.196 1088.86 336.97 1089.19 336.607L1089.69 337.051Z" fill="white" fill-opacity="0.15"/>
<path d="M1089.98 333.496C1089.66 333.848 1057.23 368.94 1015.84 394.607C991.51 409.694 968.886 418.623 948.596 421.148C923.19 424.31 901.397 417.388 883.823 400.576C875.203 392.33 869.29 382.641 865.745 370.957C862.583 360.536 861.39 348.738 862.097 334.89C863.411 309.161 870.977 281.054 878.988 251.296C880.328 246.318 881.714 241.171 883.049 236.103C900.254 170.787 911.024 109.203 854.591 73.5159C827.421 56.3337 793.066 53.4557 752.48 64.9611C719.708 74.2517 682.972 92.8269 643.291 120.171C606.749 145.352 575.45 172.663 555.627 191.14C533.325 211.928 519.121 227.504 518.074 229.68L517.475 229.392C518.541 227.178 532.813 211.497 555.174 190.654C575.013 172.162 606.339 144.828 642.914 119.624C682.655 92.2383 719.457 73.632 752.299 64.3217C771.673 58.829 789.823 56.5741 806.244 57.6188C824.285 58.7666 840.67 63.9261 854.946 72.9541C868.633 81.6092 879.108 92.3638 886.08 104.919C892.439 116.369 896.07 129.316 897.18 144.503C899.323 173.796 891.341 207.232 883.692 236.272C882.356 241.341 880.97 246.49 879.63 251.469C871.629 281.191 864.07 309.265 862.761 334.924C861.281 363.924 868.119 384.633 884.283 400.096C923.757 437.86 977.421 417.648 1015.49 394.042C1056.8 368.425 1089.17 333.397 1089.49 333.046L1089.98 333.496Z" fill="white" fill-opacity="0.15"/>
<path d="M1090.28 329.942C1089.96 330.281 1057.89 364.175 1016.78 388.864C992.616 403.376 970.103 411.918 949.863 414.255C924.522 417.18 902.699 410.335 885.002 393.911C876.353 385.884 870.331 376.459 866.592 365.096C863.258 354.964 861.827 343.499 862.218 330.046C862.943 305.055 869.753 277.803 876.962 248.951C878.147 244.209 879.372 239.306 880.55 234.481C887.396 206.445 894.472 174.182 891.758 146.102C888.835 115.856 874.911 93.5623 849.189 77.9467C822.288 61.6144 788.401 59.2447 748.471 70.904C716.135 80.3455 679.981 98.8744 641.013 125.976C604.737 151.206 573.992 178.326 554.588 196.634C531.882 218.057 518.216 233.528 516.944 236.169L516.345 235.881C517.815 232.828 532.117 216.922 554.132 196.15C573.553 177.827 604.324 150.684 640.634 125.43C679.661 98.2875 715.88 79.7275 748.284 70.2658C788.401 58.5523 822.467 60.9453 849.535 77.3784C863.121 85.6267 873.607 95.9183 880.702 107.967C887.173 118.956 891.006 131.409 892.42 146.038C895.144 174.222 888.054 206.55 881.196 234.638C880.018 239.465 878.792 244.369 877.607 249.112C870.407 277.928 863.607 305.146 862.882 330.065C862.064 358.24 869.236 378.373 885.454 393.424C925.214 430.323 978.628 411.001 1016.44 388.294C1057.47 363.652 1089.48 329.825 1089.8 329.486L1090.28 329.942Z" fill="white" fill-opacity="0.15"/>
<path d="M1090.58 326.387C1090.27 326.715 1058.55 359.409 1017.72 383.121C993.728 397.057 971.325 405.213 951.135 407.36C925.859 410.049 904.006 403.282 886.183 387.246C877.507 379.44 871.378 370.28 867.445 359.243C863.938 349.402 862.27 338.272 862.342 325.218C862.478 300.973 868.809 273.354 874.931 246.644C875.966 242.126 877.037 237.454 878.065 232.858C884.12 205.779 890.303 174.63 887.01 147.653C883.46 118.573 869.322 97.2212 843.79 82.377C817.16 66.8949 783.744 65.0339 744.471 76.8461C712.572 86.4398 677.001 104.922 638.744 131.78C602.75 157.051 572.549 183.983 553.553 202.126C531.54 223.152 517.492 239.176 515.816 242.659L515.217 242.371C516.916 238.842 531.023 222.726 553.094 201.646C572.107 183.486 602.334 156.531 638.362 131.237C676.677 104.337 712.313 85.8239 744.279 76.2097C783.736 64.3425 817.329 66.2243 844.125 81.8027C857.612 89.6442 868.111 99.4723 875.331 111.015C881.916 121.543 885.952 133.502 887.67 147.573C890.976 174.654 884.78 205.87 878.714 233.003C877.685 237.601 876.615 242.273 875.579 246.792C869.465 273.467 863.143 301.05 863.007 325.222C862.854 352.564 870.36 372.115 886.627 386.752C926.677 422.786 979.842 404.354 1017.39 382.546C1058.13 358.883 1089.79 326.253 1090.1 325.926L1090.58 326.387Z" fill="white" fill-opacity="0.15"/>
<path d="M1090.88 322.833C1090.57 323.149 1059.21 354.643 1018.67 377.377C994.842 390.738 972.549 398.506 952.41 400.465C927.198 402.918 905.313 396.228 887.362 380.581C878.662 372.997 872.427 364.105 868.301 353.396C864.622 343.849 862.714 333.058 862.468 320.407C862.012 296.915 867.543 270.206 872.892 244.376C873.784 240.069 874.706 235.616 875.589 231.237C887.412 172.573 893.463 117.385 838.39 86.8081C812.036 72.1762 779.093 70.8236 740.478 82.7874C709.017 92.5347 674.028 110.971 636.481 137.584C600.785 162.886 571.12 189.635 552.52 207.619C529.497 229.88 516.536 245.305 514.687 249.148L514.088 248.86C516.303 244.257 531.111 227.394 552.058 207.142C570.674 189.141 600.366 162.369 636.097 137.042C673.701 110.388 708.753 91.9208 740.281 82.1526C779.076 70.1329 812.194 71.504 838.712 86.2269C852.104 93.6621 862.619 103.027 869.963 114.063C876.665 124.131 880.906 135.595 882.928 149.108C886.818 175.092 881.516 205.193 876.24 231.368C875.357 235.749 874.435 240.203 873.543 244.511C868.201 270.305 862.678 296.977 863.133 320.394C863.648 346.895 871.486 365.86 887.799 380.08C928.144 415.247 981.058 397.705 1018.34 376.797C1058.8 354.111 1090.1 322.681 1090.41 322.366L1090.88 322.833Z" fill="white" fill-opacity="0.15"/>
<path d="M1091.18 319.279C1090.87 319.582 1059.87 349.877 1019.62 371.632C995.962 384.418 973.78 391.799 953.689 393.57C928.541 395.787 906.623 389.174 888.542 373.916C879.822 366.557 873.482 357.934 869.162 347.556C865.312 338.306 863.165 327.858 862.599 315.613C861.548 292.882 866.277 267.092 870.85 242.151C871.603 238.041 872.382 233.792 873.125 229.615C883.161 173.178 887.644 120.127 832.99 91.2397C806.916 77.458 774.449 76.6131 736.494 88.7281C705.472 98.63 671.064 117.02 634.226 143.388C598.844 168.714 569.704 195.283 551.49 213.112C530.042 234.106 515.938 250.691 513.558 255.638L512.959 255.349C515.364 250.352 529.523 233.684 551.025 212.637C569.256 194.791 598.422 168.198 633.839 142.847C670.733 116.439 705.203 98.0175 736.292 88.0946C774.424 75.9234 807.062 76.7837 833.3 90.6518C846.599 97.6808 857.13 106.583 864.602 117.111C871.421 126.72 875.868 137.688 878.197 150.643C880.187 161.713 880.598 174.237 879.454 188.93C878.37 202.861 875.977 217.373 873.78 229.731C873.036 233.91 872.257 238.16 871.503 242.27C861.999 294.107 853.021 343.07 888.971 373.408C929.616 407.708 982.28 391.057 1019.3 371.047C1059.47 349.337 1090.41 319.108 1090.71 318.805L1091.18 319.279Z" fill="white" fill-opacity="0.15"/>
<path d="M1091.48 315.726C1091.17 316.018 1060.54 345.112 1020.57 365.888C997.086 378.098 975.014 385.092 954.973 386.675C929.889 388.656 907.935 382.121 889.723 367.253C880.985 360.119 874.543 351.769 870.03 341.725C866.009 332.776 863.623 322.673 862.735 310.84C861.088 288.877 865.011 264.015 868.806 239.971C869.426 236.044 870.067 231.983 870.675 227.993C878.934 173.786 881.846 122.876 827.591 95.6716C768.254 65.9195 688.466 108.353 631.98 149.189C596.925 174.532 568.302 200.926 550.463 218.605C529.016 239.859 515.096 256.588 512.43 262.128L511.831 261.84C514.522 256.248 528.495 239.44 549.995 218.133C567.851 200.437 596.501 174.019 631.591 148.651C688.225 107.706 768.254 65.1757 827.889 95.0774C841.097 101.7 851.648 110.139 859.248 120.16C866.187 129.308 870.841 139.782 873.477 152.178C875.73 162.771 876.477 174.777 875.762 188.881C875.086 202.245 873.143 216.203 871.332 228.093C870.724 232.085 870.083 236.146 869.463 240.074C861.57 290.086 854.115 337.324 890.144 366.738C931.094 400.169 983.508 384.407 1020.27 365.298C1060.15 344.567 1090.71 315.537 1091.02 315.246L1091.48 315.726Z" fill="white" fill-opacity="0.15"/>
<path d="M1091.78 312.172C1091.47 312.451 1061.21 340.343 1021.53 360.14C998.213 371.774 976.253 378.38 956.26 379.775C931.239 381.521 909.249 375.065 890.903 360.587C882.15 353.68 875.609 345.605 870.904 335.899C866.714 327.253 864.088 317.5 862.878 306.082C860.633 284.896 863.75 260.97 866.764 237.832C867.253 234.072 867.76 230.185 868.235 226.368C874.715 174.394 876.07 125.629 822.191 100.102C763.387 72.241 685.079 114.57 629.742 154.986C602.657 174.768 574.139 199.311 549.439 224.094C527.234 246.375 514.104 262.792 511.3 268.617L510.701 268.329C513.528 262.455 526.709 245.96 548.968 223.625C573.692 198.818 602.239 174.251 629.35 154.45C684.833 113.928 763.376 71.5005 822.476 99.5008C835.597 105.717 846.169 113.692 853.9 123.206C860.96 131.894 865.823 141.872 868.767 153.708C874.42 176.443 871.93 202.109 868.896 226.45C868.42 230.269 867.913 234.157 867.423 237.917C861.425 283.966 855.222 331.583 891.315 360.065C932.576 392.625 984.74 377.754 1021.23 359.545C1060.83 339.79 1091.02 311.963 1091.32 311.684L1091.78 312.172Z" fill="white" fill-opacity="0.15"/>
<path d="M1092.07 308.618C1091.78 308.885 1061.88 335.574 1022.49 354.391C999.345 365.45 977.496 371.669 957.552 372.875C932.593 374.385 910.566 368.008 892.083 353.922C883.322 347.244 876.683 339.447 871.788 330.083C867.428 321.743 864.564 312.343 863.031 301.346C860.187 280.945 862.495 257.964 864.727 235.741C865.09 232.133 865.464 228.402 865.811 224.74C870.523 175.004 870.319 128.386 816.792 104.532C791.584 93.2981 760.566 93.9707 724.601 106.531C694.899 116.905 662.234 135.157 627.513 160.781C600.705 180.566 572.615 205 548.419 229.584C526.332 252.023 513.295 268.616 510.171 275.106L509.572 274.818C512.72 268.278 525.805 251.611 547.945 229.117C572.165 204.51 600.283 180.051 627.118 160.246C661.892 134.583 694.617 116.299 724.382 105.904C760.512 93.2855 791.694 92.6198 817.063 103.925C830.282 109.817 840.584 117.119 848.558 126.251C855.742 134.479 860.815 143.96 864.067 155.236C870.316 176.901 868.682 201.482 866.472 224.803C866.125 228.466 865.75 232.198 865.388 235.807C860.942 280.075 856.345 325.85 892.486 353.393C934.064 385.081 985.977 371.1 1022.2 353.792C1061.5 335.018 1091.33 308.391 1091.63 308.124L1092.07 308.618Z" fill="white" fill-opacity="0.15"/>
<path d="M1092.37 305.065C1092.08 305.321 1062.55 330.805 1023.46 348.642C1000.48 359.123 978.745 364.955 958.849 365.974C933.952 367.249 911.886 360.952 893.264 347.257C884.498 340.811 877.765 333.293 872.682 324.275C868.155 316.244 865.052 307.201 863.197 296.63C859.754 277.022 861.252 254.996 862.701 233.696C862.937 230.223 863.181 226.633 863.4 223.11C866.352 175.616 864.595 131.148 811.394 108.964C786.484 98.5765 755.956 99.7518 720.658 112.458C691.397 122.991 659.312 141.198 625.294 166.572C563.829 212.419 516.257 266.606 509.043 281.597L508.444 281.308C512.56 272.754 527.665 254.424 546.926 234.609C570.656 210.195 598.347 185.843 624.897 166.039C658.968 140.626 691.111 122.388 720.433 111.833C755.892 99.0686 786.582 97.897 811.65 108.35C824.788 113.829 835.115 120.68 843.224 129.295C850.535 137.062 855.82 146.046 859.381 156.761C866.229 177.363 865.45 200.855 864.064 223.152C863.845 226.676 863.601 230.268 863.364 233.741C860.476 276.209 857.489 320.123 893.658 346.722C935.557 377.534 987.219 364.444 1023.18 348.037C1062.18 330.242 1091.64 304.818 1091.93 304.564L1092.37 305.065Z" fill="white" fill-opacity="0.15"/>
<path d="M1092.67 301.511C1092.38 301.754 1063.23 326.033 1024.42 342.889C1001.62 352.793 979.998 358.237 960.149 359.068C935.313 360.109 913.208 353.892 894.445 340.592C885.679 334.378 878.856 327.143 873.587 318.475C868.896 310.757 865.556 302.076 863.377 291.935C859.336 273.13 860.024 252.069 860.69 231.702C860.8 228.346 860.913 224.876 861.003 221.475C862.25 174.496 858.971 133.938 805.996 113.394C781.388 103.851 751.353 105.528 716.726 118.378C687.907 129.072 656.402 147.233 623.084 172.356C596.855 192.135 569.618 216.356 546.389 240.557C527.38 260.362 512.278 279.017 507.914 288.085L507.315 287.797C511.774 278.531 526.563 260.253 545.909 240.097C569.162 215.871 596.428 191.625 622.684 171.826C656.053 146.663 687.616 128.471 716.495 117.754C751.279 104.847 781.473 103.171 806.236 112.774C819.295 117.838 829.651 124.237 837.897 132.335C845.335 139.64 850.834 148.127 854.706 158.28C862.16 177.825 862.232 200.225 861.668 221.492C861.578 224.896 861.464 228.367 861.354 231.724C860.026 272.372 858.652 314.404 894.829 340.05C937.055 369.983 988.466 357.784 1024.16 342.279C1062.87 325.463 1091.95 301.245 1092.24 301.002L1092.67 301.511Z" fill="white" fill-opacity="0.15"/>
<path d="M1092.96 297.958C1092.68 298.189 1063.9 321.261 1025.4 337.134C1002.77 346.461 981.255 351.517 961.453 352.162C936.679 352.968 914.531 346.833 895.625 333.927C886.866 327.948 879.958 321 874.506 312.685C869.652 305.284 866.078 296.969 863.576 287.264C858.939 269.27 858.818 249.184 858.702 229.758C858.682 226.501 858.662 223.133 858.621 219.834C858.062 175.19 853.31 136.7 800.598 117.825C776.298 109.125 746.76 111.3 712.804 124.291C684.429 135.148 653.503 153.263 620.885 178.136C594.958 197.906 568.143 222.022 545.379 246.041C526.284 266.189 511.495 284.786 506.784 294.575L506.185 294.287C510.924 284.44 525.757 265.779 544.897 245.584C567.684 221.539 594.528 197.398 620.482 177.607C653.15 152.696 684.132 134.549 712.567 123.67C746.675 110.62 776.369 108.443 800.822 117.199C813.805 121.848 824.192 127.793 832.577 135.373C840.146 142.215 845.859 150.203 850.042 159.793C858.11 178.289 859.032 199.592 859.285 219.826C859.327 223.127 859.347 226.496 859.367 229.754C859.599 268.563 859.84 308.694 896 333.378C938.559 362.43 989.718 351.122 1025.14 336.519C1063.56 320.683 1092.26 297.671 1092.55 297.441L1092.96 297.958Z" fill="white" fill-opacity="0.15"/>
<path d="M1093.26 294.405C1092.98 294.625 1064.58 316.487 1026.37 331.377C1003.92 340.126 982.517 344.795 962.762 345.252C938.048 345.824 915.858 339.772 896.806 327.262C888.062 321.521 881.073 314.861 875.441 306.904C870.43 299.824 866.622 291.878 863.8 282.614C858.569 265.443 857.642 246.339 856.745 227.865C856.591 224.687 856.432 221.402 856.253 218.187C853.902 175.879 847.686 139.459 795.2 122.256C771.214 114.394 742.176 117.065 708.895 130.196C680.964 141.215 650.616 159.287 618.696 183.907C560.679 228.657 515.03 281.586 505.656 301.065L505.057 300.777C514.459 281.24 560.193 228.193 618.29 183.381C650.26 158.722 680.662 140.62 708.652 129.577C742.081 116.389 771.27 113.713 795.408 121.624C808.319 125.856 818.74 131.345 827.265 138.406C834.967 144.785 840.897 152.273 845.391 161.299C854.082 178.75 855.898 199.795 856.918 218.15C857.096 221.368 857.256 224.654 857.41 227.832C859.203 264.784 861.057 302.993 897.172 326.707C940.068 354.873 990.976 344.456 1026.13 330.757C1064.25 315.904 1092.57 294.098 1092.85 293.88L1093.26 294.405Z" fill="white" fill-opacity="0.15"/>
<path d="M1093.56 290.851C1093.28 291.058 1065.26 311.709 1027.35 325.615C1005.07 333.786 983.784 338.066 964.075 338.337C939.422 338.676 917.186 332.707 897.988 320.596C861.675 297.69 858.197 261.258 854.832 226.025C854.535 222.908 854.227 219.683 853.901 216.531C849.927 178.032 842.033 142.191 789.804 126.686C766.135 119.659 737.602 122.823 704.998 136.09C677.511 147.274 647.742 165.301 616.517 189.669C591.218 209.413 565.241 233.324 543.372 256.998C524.398 277.538 509.877 296.437 504.527 307.553L503.928 307.265C509.305 296.093 523.868 277.133 542.884 256.547C564.777 232.847 590.782 208.91 616.108 189.145C647.381 164.739 677.204 146.682 704.747 135.474C737.495 122.149 766.176 118.977 789.993 126.048C802.837 129.861 813.294 134.893 821.961 141.433C829.799 147.347 835.945 154.334 840.751 162.794C850.077 179.208 852.77 199.103 854.563 216.463C854.888 219.617 855.196 222.843 855.494 225.962C858.843 261.035 862.306 297.301 898.342 320.034C941.582 347.31 992.239 337.785 1027.12 324.991C1064.94 311.119 1092.88 290.524 1093.16 290.318L1093.56 290.851Z" fill="white" fill-opacity="0.15"/>
<path d="M1093.85 287.299C1093.58 287.494 1065.95 306.931 1028.33 319.852C1006.23 327.444 985.054 331.336 965.392 331.421C940.798 331.527 918.517 325.643 899.169 313.932C862.981 292.03 857.895 257.569 852.975 224.243C852.52 221.163 852.05 217.978 851.564 214.868C845.896 178.621 836.495 144.94 784.407 131.117C761.061 124.921 733.036 128.574 701.111 141.975C674.07 153.325 644.878 171.308 614.348 195.423C589.373 215.15 563.813 238.962 542.374 262.473C523.602 283.059 509.031 302.338 503.398 314.043L502.799 313.755C508.459 301.995 523.069 282.657 541.883 262.025C563.345 238.488 588.934 214.65 613.936 194.901C644.514 170.748 673.757 152.735 700.854 141.361C732.918 127.903 761.087 124.24 784.578 130.474C797.357 133.865 807.853 138.439 816.663 144.456C824.639 149.903 831.004 156.388 836.123 164.281C846.098 179.662 849.662 198.404 852.22 214.764C852.707 217.877 853.177 221.064 853.632 224.145C858.529 257.319 863.593 291.623 899.513 313.363C943.101 339.745 993.506 331.111 1028.11 319.223C1065.64 306.333 1093.19 286.951 1093.47 286.757L1093.85 287.299Z" fill="white" fill-opacity="0.15"/>
<path d="M1094.15 283.746C1093.88 283.929 1066.63 302.15 1029.32 314.084C1007.39 321.096 986.33 324.6 966.714 324.499C942.178 324.373 919.851 318.575 900.351 307.267C864.337 286.382 857.654 253.914 851.192 222.516C850.561 219.451 849.908 216.281 849.241 213.191C841.902 179.195 831.007 147.676 779.011 135.547C755.993 130.177 728.479 134.315 697.236 147.845C670.641 159.362 642.027 177.302 612.189 201.164C580.605 226.423 556.25 251.42 541.38 267.942C522.53 288.887 508.275 308.055 502.27 320.533L501.671 320.244C507.702 307.713 521.995 288.487 540.886 267.497C555.772 250.957 580.154 225.932 611.774 200.645C641.658 176.745 670.322 158.776 696.972 147.235C728.349 133.647 756.002 129.496 779.163 134.899C803.137 140.492 820.259 150.585 831.506 165.755C842.147 180.107 846.575 197.693 849.891 213.051C850.559 216.144 851.212 219.315 851.843 222.382C858.276 253.637 864.928 285.956 900.684 306.692C944.625 332.174 994.778 324.433 1029.11 313.451C1066.34 301.546 1093.51 283.378 1093.78 283.195L1094.15 283.746Z" fill="white" fill-opacity="0.15"/>
<path d="M1094.44 280.193C1094.18 280.363 1067.32 297.365 1030.3 308.312C1008.56 314.743 987.609 317.858 968.038 317.572C943.561 317.214 921.186 311.504 901.532 300.6C865.749 280.748 857.491 250.296 849.504 220.847C848.671 217.773 847.809 214.594 846.933 211.501C837.945 179.754 825.575 150.394 773.616 139.976C750.928 135.426 723.93 140.044 693.37 153.701C667.223 165.387 639.186 183.283 610.039 206.892C578.888 232.125 554.97 256.99 540.389 273.406C521.738 294.405 507.433 313.947 501.141 327.022L500.542 326.733C506.86 313.605 521.202 294.007 539.892 272.964C554.489 256.53 578.435 231.637 609.621 206.376C638.813 182.73 666.899 164.804 693.099 153.095C723.787 139.38 750.921 134.747 773.746 139.324C797.629 144.113 815.016 153.236 826.899 167.215C837.087 179.199 842.532 193.514 847.573 211.32C848.449 214.416 849.312 217.597 850.146 220.673C858.096 249.989 866.317 280.303 901.855 300.019C946.153 324.596 996.055 317.747 1030.12 307.674C1067.04 296.756 1093.82 279.803 1094.09 279.632L1094.44 280.193Z" fill="white" fill-opacity="0.15"/>
<path d="M1094.74 276.642C1094.47 276.8 1068.01 292.58 1031.3 302.538C1009.73 308.387 988.892 311.114 969.367 310.643C944.948 310.054 922.523 304.433 902.714 293.937C867.228 275.133 857.423 246.718 847.942 219.239C846.869 216.131 845.76 212.917 844.639 209.799C834.031 180.295 820.204 153.093 768.221 144.407C745.868 140.672 719.388 145.766 689.515 159.545C663.815 171.4 636.355 189.253 607.898 212.61C554.54 256.403 512.488 307.588 500.012 333.513L499.413 333.224C506.017 319.501 520.411 299.528 538.902 278.429C559.429 255.006 583.142 232.068 607.476 212.096C635.977 188.704 663.485 170.82 689.236 158.942C719.232 145.105 745.843 139.994 768.33 143.751C820.668 152.497 834.587 179.877 845.265 209.574C846.387 212.696 847.497 215.912 848.57 219.022C858.01 246.38 867.771 274.669 903.025 293.349C947.686 317.015 997.336 311.06 1031.12 301.896C1067.75 291.963 1094.13 276.23 1094.39 276.072L1094.74 276.642Z" fill="white" fill-opacity="0.15"/>
<path d="M1095.03 273.088C1094.77 273.234 1068.7 287.789 1032.29 296.756C1010.9 302.023 990.179 304.361 970.699 303.706C946.338 302.886 923.862 297.357 903.896 287.27C868.789 269.535 857.479 243.177 846.54 217.687C845.181 214.519 843.775 211.244 842.359 208.077C830.161 180.808 814.9 155.759 762.826 148.835C740.811 145.908 714.851 151.471 685.668 165.368C660.417 177.394 633.534 195.205 605.764 218.309C552.863 262.322 511.953 312.843 498.883 340.001L498.284 339.713C505.277 325.182 519.351 305.356 537.914 283.885C558.046 260.599 581.362 237.747 605.339 217.798C633.151 194.659 660.081 176.817 685.382 164.768C714.684 150.815 740.769 145.232 762.913 148.176C786.645 151.332 804.57 158.499 817.712 170.088C829.877 180.816 837.038 194.556 842.965 207.806C844.384 210.978 845.791 214.255 847.151 217.425C858.042 242.806 869.305 269.051 904.195 286.677C949.224 309.425 998.621 304.363 1032.13 296.111C1068.45 287.166 1094.45 272.655 1094.7 272.51L1095.03 273.088Z" fill="white" fill-opacity="0.15"/>
<path d="M1095.32 269.536C1095.07 269.67 1069.39 282.996 1033.29 290.971C1012.08 295.655 991.47 297.604 972.034 296.765C947.73 295.716 925.203 290.279 905.078 280.605C889.579 273.155 877.055 263.421 866.791 250.846C857.713 239.724 851.426 227.762 845.347 216.195C843.637 212.941 841.869 209.576 840.09 206.337C826.34 181.293 809.671 158.39 757.432 153.265C735.757 151.139 710.32 157.165 681.828 171.176C657.027 183.372 630.72 201.143 603.637 223.994C551.763 267.762 511.106 318.748 497.754 346.491L497.155 346.202C504.439 331.067 518.564 310.872 536.929 289.337C556.676 266.18 579.595 243.409 603.208 223.486C630.332 200.6 656.685 182.799 681.535 170.579C710.139 156.512 735.696 150.464 757.497 152.603C781.169 154.925 799.367 161.106 813.13 171.498C826.026 181.236 833.989 193.843 840.673 206.017C842.454 209.261 844.224 212.629 845.935 215.885C858.226 239.272 870.936 263.456 905.366 280.006C950.765 301.829 999.91 297.661 1033.14 290.321C1069.16 282.366 1094.76 269.081 1095.02 268.947L1095.32 269.536Z" fill="white" fill-opacity="0.15"/>
<path d="M1095.62 265.984C1095.36 266.105 1070.09 278.2 1034.29 285.179C1013.26 289.279 992.763 290.839 973.372 289.818C949.125 288.54 926.545 283.198 906.26 273.94C891.033 266.991 878.394 257.995 867.62 246.438C858.098 236.225 851.147 225.312 844.424 214.758C842.279 211.39 840.06 207.908 837.833 204.575C822.569 181.741 804.523 160.973 752.037 157.694C698.146 154.326 634.598 201.338 601.514 229.661C555.912 268.701 512.78 319.411 496.625 352.98L496.026 352.692C503.602 336.951 517.778 316.385 535.945 294.782C555.316 271.746 577.84 249.053 601.081 229.156C627.519 206.523 653.295 188.763 677.693 176.37C705.597 162.196 730.624 155.689 752.079 157.03C775.704 158.506 794.177 163.693 808.553 172.888C822.214 181.625 830.964 193.103 838.386 204.206C840.617 207.544 842.838 211.03 844.985 214.401C858.603 235.779 872.686 257.886 906.536 273.335C952.311 294.225 1001.2 290.952 1034.16 284.527C1069.87 277.565 1095.08 265.506 1095.33 265.386L1095.62 265.984Z" fill="white" fill-opacity="0.15"/>
<path d="M1095.91 262.431C1095.66 262.54 1070.78 273.398 1035.29 279.382C1014.44 282.897 994.059 284.068 974.713 282.864C950.523 281.358 927.89 276.113 907.442 267.274C892.554 260.837 879.861 252.592 868.639 242.066C858.73 232.77 851.165 222.908 843.85 213.37C841.034 209.699 838.375 206.232 835.584 202.788C819.52 182.965 799.42 163.497 746.644 162.121C693.395 160.732 631.532 207.38 599.395 235.31C554.005 274.758 512.252 324.654 495.497 359.469L494.898 359.181C502.764 342.835 516.993 321.895 534.963 300.22C553.966 277.298 576.095 254.679 598.959 234.808C624.712 212.427 649.91 194.707 673.855 182.141C701.057 167.865 725.552 160.906 746.661 161.456C770.251 162.072 789 166.258 803.98 174.255C818.442 181.975 827.965 192.33 836.101 202.37C838.897 205.82 841.559 209.291 844.378 212.965C859.226 232.325 874.58 252.343 907.706 266.663C953.859 286.614 1002.5 284.235 1035.18 278.726C1070.59 272.756 1095.39 261.932 1095.64 261.823L1095.91 262.431Z" fill="white" fill-opacity="0.15"/>
<path d="M1096.2 258.879C1095.95 258.976 1071.48 268.594 1036.29 273.579C1015.62 276.507 995.358 277.289 976.055 275.903C951.922 274.17 929.235 269.024 908.624 260.608C894.153 254.699 881.486 247.215 869.901 237.731C859.677 229.363 851.57 220.549 843.728 212.026C840.189 208.178 836.845 204.544 833.341 200.976C815.915 183.23 794.45 165.954 741.25 166.549C688.637 167.137 628.463 213.41 597.277 240.94C552.825 280.182 511.469 330.423 494.367 365.959L493.768 365.671C502.045 348.473 515.95 327.718 533.98 305.652C552.624 282.834 574.359 260.285 596.837 240.443C621.905 218.313 646.527 200.632 670.017 187.892C696.514 173.521 720.478 166.116 741.242 165.884C764.808 165.621 783.834 168.799 799.407 175.599C814.752 182.3 825.412 191.952 833.816 200.511C837.327 204.086 840.674 207.724 844.218 211.576C860.164 228.91 876.654 246.835 908.876 259.993C955.41 278.995 1003.8 277.512 1036.2 272.921C1071.3 267.948 1095.71 258.358 1095.95 258.261L1096.2 258.879Z" fill="white" fill-opacity="0.15"/>
<path d="M1096.49 255.326C1096.25 255.41 1072.17 263.785 1037.29 267.77C1016.81 270.111 996.659 270.503 977.401 268.936C953.323 266.977 930.581 261.932 909.806 253.942C878.593 241.936 860.316 225.345 844.192 210.707C839.729 206.656 835.513 202.83 831.103 199.134C808.239 179.978 784.331 168.586 735.856 170.976C697.327 172.876 647.36 199.716 595.158 246.552C550.969 286.2 510.963 335.617 493.238 372.448L492.639 372.16C510.399 335.257 550.466 285.759 594.714 246.058C619.099 224.178 643.144 206.536 666.18 193.62C691.969 179.161 715.401 171.319 735.824 170.312C759.377 169.151 778.679 171.312 794.834 176.919C811.064 182.551 822.491 191.052 831.53 198.625C835.95 202.328 840.17 206.159 844.638 210.215C860.72 224.814 878.947 241.36 910.045 253.321C956.963 271.367 1005.1 270.78 1037.22 267.109C1072.02 263.133 1096.03 254.783 1096.27 254.699L1096.49 255.326Z" fill="white" fill-opacity="0.15"/>
<path d="M1096.77 251.774C1096.54 251.845 1072.87 258.971 1038.3 261.955C1018 263.707 997.962 263.71 978.747 261.962C954.726 259.778 931.929 254.837 910.989 247.276C881.19 236.517 862.181 222.108 845.41 209.396C839.765 205.117 834.433 201.076 828.863 197.263C805.138 181.02 779.325 171.086 730.464 175.403C692.39 178.767 643.584 206.021 593.037 252.146C549.146 292.197 510.473 340.781 492.11 378.938L491.511 378.649C500.381 360.217 514.388 338.724 532.015 316.493C549.963 293.859 570.909 271.438 592.589 251.655C616.292 230.026 639.759 212.421 662.339 199.33C687.419 184.788 710.32 176.515 730.405 174.741C753.957 172.66 773.535 173.796 790.259 178.213C807.513 182.77 820.154 190.494 829.239 196.714C834.822 200.536 840.16 204.582 845.812 208.866C862.545 221.549 881.511 235.925 911.215 246.651C958.519 263.731 1006.4 264.04 1038.24 261.292C1072.74 258.315 1096.35 251.209 1096.58 251.137L1096.77 251.774Z" fill="white" fill-opacity="0.15"/>
<path d="M1097.06 248.22C1096.83 248.279 1073.56 254.153 1039.31 256.132C1019.19 257.295 999.266 256.907 980.096 254.98C956.13 252.571 933.277 247.737 912.172 240.61C884.111 231.134 864.711 218.874 847.594 208.056C840.434 203.531 833.67 199.257 826.62 195.359C801.454 181.443 774.554 173.477 725.071 179.829C687.442 184.659 639.796 212.322 590.912 257.72C548.005 297.566 509.714 346.5 490.981 385.427L490.382 385.139C509.149 346.142 547.496 297.132 590.459 257.233C613.48 235.854 636.37 218.286 658.492 205.018C682.86 190.402 705.232 181.706 724.986 179.17C748.544 176.146 768.396 176.248 785.676 179.481C799.895 182.141 812.622 186.859 826.942 194.777C834.009 198.685 840.78 202.964 847.949 207.495C865.034 218.292 884.399 230.53 912.384 239.98C960.077 256.085 1007.71 257.292 1039.27 255.469C1073.46 253.493 1096.67 247.635 1096.9 247.577L1097.06 248.22Z" fill="white" fill-opacity="0.15"/>
<path d="M1097.35 244.666C1097.12 244.713 1074.26 249.329 1040.31 250.303C1020.38 250.874 1000.57 250.096 981.444 247.991C957.534 245.359 934.625 240.633 913.354 233.943C887.421 225.788 868.076 215.619 851.008 206.648C841.904 201.863 833.306 197.343 824.369 193.423C801.389 183.342 772.802 175.255 719.678 184.255C682.48 190.556 635.992 218.621 588.778 263.277C546.232 303.518 509.25 351.607 489.852 391.916L489.253 391.628C498.72 371.955 512.825 349.713 530.042 327.308C547.321 304.82 567.474 282.512 588.321 262.794C610.661 241.664 632.973 224.132 654.637 210.686C678.29 196.004 700.136 186.891 719.567 183.599C743.137 179.606 763.259 178.665 781.084 180.722C796.084 182.452 809.516 186.182 824.635 192.814C833.594 196.744 842.203 201.269 851.316 206.06C868.36 215.018 887.677 225.172 913.554 233.309C961.635 248.43 1009.01 250.535 1040.29 249.638C1074.18 248.667 1096.99 244.062 1097.21 244.015L1097.35 244.666Z" fill="white" fill-opacity="0.15"/>
<path d="M1097.63 241.113C1097.41 241.147 1074.96 244.502 1041.32 244.467C1021.57 244.446 1001.88 243.278 982.793 240.995C958.939 238.141 935.974 233.526 914.537 227.278C891.185 220.473 872.469 212.313 855.956 205.113C844.375 200.063 833.435 195.293 822.104 191.457C797.951 183.279 768.172 177.283 714.286 188.681C677.502 196.462 632.168 224.922 586.634 268.819C545.111 308.849 508.509 357.293 488.722 398.407L488.123 398.118C507.942 356.937 544.596 308.422 586.172 268.341C607.833 247.459 629.567 229.962 650.77 216.337C673.707 201.598 695.03 192.075 714.148 188.031C737.73 183.042 758.119 181.049 776.479 181.937C792.065 182.691 806.63 185.516 822.317 190.827C833.675 194.673 844.627 199.448 856.222 204.503C872.717 211.695 891.412 219.847 914.723 226.64C963.195 240.767 1010.32 243.77 1041.32 243.803C1074.9 243.838 1097.31 240.49 1097.53 240.457L1097.63 241.113Z" fill="white" fill-opacity="0.15"/>
<path d="M1097.92 237.558C1097.7 237.579 1075.65 239.668 1042.33 238.622C1022.76 238.008 1003.18 236.45 984.143 233.989C960.345 230.913 937.323 226.412 915.72 220.611C895.472 215.173 878.858 209.177 862.791 203.378C848.071 198.065 834.167 193.047 819.825 189.457C785.661 180.908 752.485 181.999 708.893 193.105C672.509 202.374 628.324 231.226 584.479 274.344C543.389 314.753 508.076 362.337 487.594 404.896L486.995 404.607C497.064 383.685 511.262 360.687 528.054 338.099C544.689 315.723 564.039 293.513 584.013 273.87C604.995 253.235 626.15 235.774 646.89 221.97C669.109 207.183 689.914 197.255 708.729 192.461C732.319 186.45 752.97 183.396 771.86 183.124C788.243 182.889 803.536 184.696 819.986 188.813C834.36 192.41 848.28 197.434 863.016 202.753C879.071 208.547 895.671 214.539 915.892 219.969C964.755 233.091 1011.63 236.994 1042.35 237.958C1075.63 239.002 1097.63 236.917 1097.85 236.896L1097.92 237.558Z" fill="white" fill-opacity="0.15"/>
<path d="M1098.2 234.001C1097.98 234.01 1076.35 234.828 1043.33 232.77C1012.87 230.871 966.202 226.063 916.903 213.944C900.341 209.872 885.873 205.55 871.881 201.371C853.231 195.799 835.615 190.537 817.525 187.43C781.778 181.29 747.678 184.31 703.501 197.528C667.495 208.301 624.456 237.539 582.31 279.856C542.288 320.039 507.354 367.979 486.465 411.384L485.866 411.096C506.786 367.627 541.767 319.621 581.839 279.386C624.062 236.993 667.201 207.696 703.31 196.892C726.894 189.835 747.799 185.712 767.221 184.288C784.401 183.027 800.422 183.818 817.637 186.775C835.766 189.889 853.401 195.156 872.071 200.734C886.055 204.911 900.516 209.231 917.062 213.298C966.313 225.406 1012.94 230.209 1043.38 232.107C1076.35 234.163 1097.96 233.346 1098.17 233.337L1098.2 234.001Z" fill="white" fill-opacity="0.15"/>
<path d="M1098.48 230.444C1098.27 230.44 1077.04 229.984 1044.34 226.912C1014.16 224.076 967.76 218.367 918.086 207.277C905.848 204.545 894.532 201.737 883.589 199.021C859.073 192.937 837.901 187.682 815.201 185.376C778.323 181.629 742.21 186.741 698.107 201.952C662.464 214.245 620.563 243.865 580.125 285.356C540.616 325.894 506.953 372.956 485.336 417.874L484.737 417.586C495.566 395.084 509.464 371.965 526.045 348.87C542.284 326.251 560.318 304.726 579.649 284.893C620.158 243.329 662.151 213.65 697.891 201.324C721.445 193.2 742.599 188.001 762.56 185.429C780.281 183.145 797.522 182.912 815.268 184.715C838.015 187.026 859.209 192.285 883.749 198.376C894.688 201.091 906 203.898 918.23 206.628C967.87 217.711 1014.24 223.416 1044.4 226.25C1077.08 229.32 1098.28 229.775 1098.49 229.78L1098.48 230.444Z" fill="white" fill-opacity="0.15"/>
<path d="M1098.76 226.887C1098.55 226.87 1077.73 225.135 1045.34 221.046C1015.45 217.272 969.316 210.663 919.269 200.611C912.052 199.162 905.043 197.701 898.266 196.289C867.626 189.904 841.164 184.39 812.853 183.299C774.285 181.813 737.233 188.93 692.715 206.376C657.413 220.21 616.646 250.209 577.923 290.849C539.537 331.136 506.254 378.552 484.207 424.364L483.608 424.076C505.685 378.203 539.009 330.726 577.442 290.391C616.231 249.682 657.082 219.625 692.472 205.757C715.967 196.55 737.36 190.268 757.876 186.55C776.353 183.201 794.345 181.921 812.879 182.635C841.245 183.728 867.732 189.247 898.402 195.638C905.178 197.05 912.185 198.511 919.399 199.959C969.428 210.008 1015.55 216.614 1045.43 220.386C1077.8 224.474 1098.61 226.207 1098.82 226.224L1098.76 226.887Z" fill="white" fill-opacity="0.15"/>
<path d="M1099.14 222.668L1099.04 223.326C1098.84 223.296 1078.42 220.278 1046.35 215.171C1016.74 210.457 970.874 202.948 920.452 193.943L916.223 193.187C878.313 186.407 845.573 180.552 810.478 181.199C770.655 181.934 731.521 191.339 687.322 210.797C652.345 226.195 612.705 256.573 575.703 296.333C538.46 336.354 505.565 384.127 483.079 430.853L482.48 430.564C493.933 406.765 507.906 382.899 524.011 359.627C539.634 337.051 556.863 315.603 575.217 295.881C593.503 276.231 612.336 258.904 631.195 244.381C650.509 229.508 669.302 218.004 687.054 210.189C710.45 199.89 732.075 192.517 753.166 187.651C772.373 183.22 791.116 180.892 810.466 180.535C845.626 179.886 878.396 185.747 916.341 192.533L920.569 193.289C970.987 202.293 1016.85 209.801 1046.45 214.514C1078.52 219.621 1098.94 222.638 1099.14 222.668Z" fill="white" fill-opacity="0.15"/>
<path d="M1099.46 219.116L1099.32 219.766C1099.12 219.723 1079.11 215.419 1047.35 209.29C1018.03 203.634 972.419 195.223 921.635 187.277C884.059 181.397 847.098 176.347 808.073 179.085C766.35 182.012 726.266 193.494 681.928 215.22C646.759 232.453 609.252 262.397 573.464 301.815C536.864 342.127 505.219 388.992 481.949 437.343L481.35 437.055C504.647 388.647 536.329 341.727 572.972 301.369C590.591 281.963 608.842 264.669 627.22 249.967C645.799 235.104 664.107 223.212 681.636 214.623C726.053 192.858 766.215 181.355 808.026 178.422C847.121 175.679 884.122 180.735 921.738 186.62C972.531 194.568 1018.15 202.98 1047.47 208.638C1079.24 214.767 1099.26 219.074 1099.46 219.116Z" fill="white" fill-opacity="0.15"/>
<path d="M1099.79 215.563L1099.6 216.202C1099.41 216.147 1079.8 210.551 1048.35 203.4C1019.31 196.799 973.966 187.487 922.819 180.608C886.93 175.781 847.896 171.998 805.639 176.954C762.481 182.016 720.25 195.979 676.534 219.641C641.668 238.513 605.246 268.822 571.206 307.293C535.813 347.293 504.558 394.507 480.821 443.832L480.222 443.543C503.985 394.165 535.275 346.898 570.708 306.853C604.799 268.324 641.284 237.965 676.218 219.056C699.288 206.569 721.348 197.005 743.661 189.817C764.234 183.19 784.482 178.766 805.562 176.294C824.263 174.101 843.53 173.473 864.462 174.377C881.555 175.115 900.126 176.886 922.907 179.95C974.078 186.832 1019.45 196.148 1048.49 202.752C1079.97 209.907 1099.59 215.507 1099.79 215.563Z" fill="white" fill-opacity="0.15"/>
<path d="M1100.11 212.014L1099.88 212.639C1099.69 212.57 1080.48 205.68 1049.34 197.504C1020.59 189.958 975.509 179.745 924.001 173.942C877.127 168.661 839.863 168.931 803.175 174.815C757.881 182.081 714.691 198.19 671.14 224.062C636.572 244.599 601.228 275.274 568.929 312.773C534.281 353 504.257 399.278 479.692 450.322L479.093 450.034C491.504 424.244 505.572 399.253 520.905 375.756C535.638 353.18 551.626 331.843 568.425 312.34C600.77 274.787 636.171 244.063 670.8 223.491C714.425 197.575 757.691 181.438 803.07 174.159C822.847 170.987 842.927 169.478 864.457 169.545C882.766 169.602 902.267 170.825 924.076 173.281C975.623 179.089 1020.74 189.31 1049.51 196.862C1080.68 205.045 1099.92 211.945 1100.11 212.014Z" fill="white" fill-opacity="0.15"/>
<path d="M1100.43 208.464L1100.16 209.073C1099.98 208.991 1081.16 200.801 1050.33 191.6C1021.87 183.107 977.049 171.991 925.184 167.273C880.074 163.17 839.349 164.935 800.682 172.669C753.132 182.179 708.994 200.436 665.745 228.482C630.986 251.023 597.64 281.226 566.632 318.254C533.262 358.103 503.631 404.72 478.563 456.811L477.964 456.522C503.057 404.382 532.717 357.719 566.123 317.827C597.173 280.749 630.569 250.501 665.383 227.925C687.653 213.483 710.753 201.381 734.043 191.955C755.546 183.251 777.923 176.543 800.552 172.017C839.282 164.27 880.07 162.502 925.245 166.611C977.164 171.334 1022.03 182.461 1050.52 190.963C1081.4 200.177 1100.24 208.382 1100.43 208.464Z" fill="white" fill-opacity="0.15"/>
<path d="M1100.75 204.917L1100.45 205.507C1100.2 205.378 1075.02 192.418 1034.56 180.397C997.221 169.305 938.857 156.766 872.855 160.031C756.272 165.797 593.035 223.091 477.434 463.301L476.835 463.013C503.546 407.51 534.204 358.811 567.959 318.27C598.65 281.408 632.589 250.459 668.834 226.28C729.884 185.555 798.515 163.042 872.822 159.367C902.011 157.923 932.157 159.419 962.421 163.813C986.631 167.328 1010.97 172.695 1034.77 179.765C1075.28 191.804 1100.5 204.787 1100.75 204.917Z" fill="white" fill-opacity="0.15"/>
</g>
<mask id="mask1_12457_183834" style="mask-type:luminance" maskUnits="userSpaceOnUse" x="-80" y="-197" width="687" height="631">
<path d="M83.1698 -197L-80 236.285L443.084 433.272L606.253 -0.0128785L83.1698 -197Z" fill="white"/>
</mask>
<g mask="url(#mask1_12457_183834)">
<path d="M508.86 296.32C508.454 296.626 467.699 327.13 420.575 345.97C392.875 357.043 368.421 361.982 347.893 360.649C322.181 358.978 302.593 347.419 289.672 326.291C283.278 315.835 280.072 304.476 279.873 291.567C279.695 280.048 281.934 267.524 286.719 253.281C295.616 226.802 311.657 199.114 328.641 169.798C331.656 164.594 334.774 159.212 337.811 153.9C354.289 125.084 372.415 91.6846 378.935 59.952C385.926 25.9281 378.723 -2.19057 356.912 -26.0105C333.922 -51.1186 300.109 -62.9848 256.41 -61.279C221.407 -59.9128 180.024 -49.8875 133.412 -31.4819C91.9299 -15.1025 53.9034 5.01931 29.3077 19.0154C2.65612 34.1811 -14.4038 45.6202 -14.5731 45.7338L-14.9419 45.185C-14.7725 45.0711 2.30317 33.6213 28.9745 18.444C53.5902 4.43656 91.6484 -15.7025 133.169 -32.0971C179.851 -50.53 221.306 -60.5707 256.384 -61.94C277.229 -62.7535 296.026 -60.4746 312.254 -55.1664C330.119 -49.323 345.308 -39.6636 357.4 -26.4574C368.914 -13.8832 376.496 0.141902 379.938 15.2283C383.075 28.9818 382.959 43.6545 379.583 60.0848C373.044 91.9124 354.889 125.368 338.386 154.228C335.348 159.542 332.229 164.924 329.213 170.13C312.246 199.415 296.218 227.077 287.346 253.491C277.327 283.314 278.245 306.337 290.237 325.946C303.038 346.879 322.451 358.333 347.936 359.988C368.365 361.315 392.722 356.392 420.329 345.355C467.369 326.55 508.057 296.097 508.462 295.792L508.86 296.32Z" fill="white" fill-opacity="0.13"/>
<path d="M509.905 292.928C509.505 293.223 469.386 322.608 422.762 340.543C395.357 351.085 371.095 355.669 350.65 354.168C325.044 352.288 305.39 340.813 292.233 320.063C285.78 309.798 282.428 298.66 281.984 286.01C281.589 274.725 283.537 262.466 287.939 248.531C296.123 222.632 311.25 195.606 327.266 166.993C330.061 161.999 332.952 156.835 335.766 151.741C351.264 123.687 368.277 91.1804 373.982 60.4218C380.105 27.4104 372.497 0.172021 350.721 -22.8498C327.804 -47.0795 294.331 -58.3535 251.232 -56.3585C216.62 -54.7566 175.814 -44.6528 129.948 -26.3273C88.7545 -9.86845 51.4284 10.1213 27.3695 23.9923C0.687166 39.3762 -16.2709 50.9633 -16.9767 51.7379L-17.4926 51.3243C-16.9803 50.6689 -0.0303479 39.0381 26.7894 23.5635C50.9228 9.63902 88.3673 -10.4263 129.703 -26.9418C175.638 -45.2945 216.516 -55.4141 251.202 -57.0196C271.765 -57.9715 290.338 -55.8988 306.404 -50.8595C324.08 -45.3156 339.152 -36.0448 351.202 -23.3049C362.699 -11.1503 370.388 2.42316 374.057 17.0387C377.402 30.3643 377.591 44.5942 374.633 60.5421C368.908 91.3979 351.868 123.961 336.345 152.06C333.53 157.156 330.639 162.321 327.843 167.316C311.844 195.898 296.732 222.895 288.57 248.73C279.351 277.909 280.693 300.463 292.793 319.709C322.334 366.3 379.647 356.419 422.525 339.925C469.067 322.022 509.114 292.69 509.513 292.396L509.905 292.928Z" fill="white" fill-opacity="0.13"/>
<path d="M510.951 289.536C510.556 289.82 470.988 318.142 424.823 335.2C397.689 345.226 373.612 349.459 353.264 347.78C327.781 345.679 308.109 334.257 294.794 313.834C288.241 303.783 284.71 292.879 284.001 280.5C283.367 269.457 285.011 257.466 289.026 243.84C296.485 218.521 310.718 192.141 325.786 164.211C328.355 159.449 331.011 154.525 333.597 149.669C366.399 88.0614 391.919 28.7499 344.531 -19.689C321.688 -43.0385 288.557 -53.7197 246.06 -51.4359C211.84 -49.5971 171.611 -39.4144 126.491 -21.1706C85.398 -4.5552 48.5858 15.4217 24.9401 29.2549C-1.30708 44.6097 -18.5215 56.6172 -19.4459 57.8002L-19.967 57.3928C-17.879 54.7217 48.556 9.628 126.243 -21.784C171.431 -40.0551 211.732 -50.2537 246.025 -52.0966C266.306 -53.1864 284.654 -51.3205 300.558 -46.5506C318.043 -41.3068 332.997 -32.4248 345.004 -20.1516C356.485 -8.41616 364.278 4.70983 368.166 18.8613C371.712 31.7646 372.193 45.5596 369.639 61.035C367.794 72.2094 364.407 83.6404 360.13 94.9981C352.967 114.022 343.303 132.848 334.181 149.98C331.594 154.837 328.937 159.762 326.368 164.525C311.317 192.423 297.101 218.773 289.66 244.027C281.254 272.559 283.061 294.626 295.348 313.472C325.252 359.339 382.138 350.267 424.594 334.58C470.672 317.554 510.171 289.283 510.564 289L510.951 289.536Z" fill="white" fill-opacity="0.13"/>
<path d="M511.996 286.144C511.607 286.417 472.636 313.649 426.953 329.816C400.101 339.318 376.214 343.198 355.955 341.347C330.587 339.029 310.871 327.677 297.355 307.605C290.726 297.759 287.033 287.086 286.067 274.976C285.205 264.175 286.548 252.453 290.174 239.142C296.911 214.41 310.23 188.693 324.332 161.466C326.691 156.911 329.13 152.201 331.503 147.558C362.088 87.7165 385.625 30.1373 338.341 -16.5284C315.575 -38.9964 282.789 -49.0842 240.895 -46.5121C207.067 -44.4349 167.415 -34.1736 123.039 -16.013C82.1741 0.711168 45.9529 20.6183 22.7628 34.3731C-3.32737 49.8485 -20.4403 61.9753 -21.9201 63.8684L-22.4412 63.461C-20.9352 61.5347 -3.73408 49.3208 22.4255 33.8044C45.6347 20.0381 81.8867 0.114351 122.789 -16.6249C167.231 -34.8131 206.954 -45.0906 240.855 -47.1721C260.854 -48.4003 278.976 -46.7408 294.717 -42.2408C312.01 -37.297 326.843 -28.8045 338.805 -16.9992C350.273 -5.68148 358.173 6.99562 362.287 20.6801C366.038 33.159 366.82 46.5159 364.678 61.5142C360.545 90.4442 345.691 121.253 332.092 147.859C329.719 152.504 327.279 157.215 324.919 161.77C310.834 188.965 297.53 214.65 290.812 239.316C283.219 267.192 285.473 288.774 297.904 307.235C328.263 352.321 384.718 344.061 426.732 329.192C472.327 313.056 511.228 285.876 511.615 285.603L511.996 286.144Z" fill="white" fill-opacity="0.13"/>
<path d="M513.04 282.752C512.658 283.015 474.285 309.156 429.085 324.433C402.518 333.412 378.82 336.938 358.649 334.915C333.395 332.381 313.634 321.097 299.916 301.376C293.211 291.738 289.358 281.298 288.134 269.459C287.043 258.902 288.085 247.454 291.32 234.459C297.328 210.32 309.73 185.273 322.861 158.756C325.019 154.398 327.25 149.892 329.419 145.451C342.022 119.651 355.747 89.7906 359.068 61.9183C362.644 31.8963 353.839 7.27022 332.15 -13.3674C309.464 -34.9522 277.027 -44.4464 235.737 -41.5857C202.301 -39.2692 163.224 -28.9293 119.593 -10.8531C78.9757 5.97471 43.3344 25.8135 20.5874 39.4927C-6.03061 55.5001 -22.5986 67.6392 -24.395 69.937L-24.916 69.5297C-22.8395 66.8733 -5.56193 54.4464 20.2468 38.9258C43.0131 25.2352 78.6852 5.3793 119.341 -11.4642C163.038 -29.5678 202.184 -39.9241 235.691 -42.2456C277.174 -45.1194 309.781 -35.5647 332.606 -13.8465C344.062 -2.94563 352.072 9.28384 356.412 22.5016C360.371 34.5572 361.454 47.4759 359.724 61.9964C356.392 89.9718 342.64 119.893 330.013 145.742C327.844 150.184 325.612 154.691 323.453 159.049C310.34 185.534 297.954 210.549 291.962 234.618C285.188 261.833 287.887 282.926 300.459 300.998C331.279 345.304 387.302 337.856 428.873 323.806C473.988 308.558 512.284 282.468 512.666 282.207L513.04 282.752Z" fill="white" fill-opacity="0.13"/>
<path d="M514.086 279.361C513.709 279.612 475.938 304.664 431.221 319.05C404.939 327.506 381.43 330.68 361.349 328.483C336.208 325.734 316.401 314.518 302.478 295.148C295.701 285.719 291.686 275.514 290.205 263.95C288.885 253.64 289.624 242.467 292.465 229.792C297.742 206.253 309.757 180.748 321.375 156.083C323.341 151.911 325.373 147.596 327.347 143.347C338.979 118.309 351.6 89.341 354.123 62.4192C356.842 33.3972 347.631 9.64158 325.961 -10.2061C303.36 -30.9068 271.272 -39.8066 230.588 -36.6579C197.544 -34.1008 159.044 -23.6824 116.156 -5.69202C75.8037 11.2348 40.7316 31.0069 18.4156 44.6129C-7.4449 60.3804 -24.5 72.9759 -26.8686 76.0062L-27.3897 75.5989C-24.9898 72.5287 -7.85658 59.8564 18.0715 44.0484C40.4071 30.4305 75.5101 10.6411 115.9 -6.30166C158.853 -24.3196 197.422 -34.7546 230.537 -37.3172C271.41 -40.4804 303.666 -31.5229 326.408 -10.6935C337.855 -0.208816 345.976 11.5728 350.544 24.3248C354.711 35.957 356.097 48.4381 354.781 62.4813C352.249 89.5076 339.602 118.538 327.947 143.626C325.972 147.877 323.94 152.192 321.974 156.365C310.37 180.998 298.371 206.469 293.111 229.937C287.16 256.483 290.307 277.082 303.015 294.762C334.3 338.288 389.892 331.652 431.019 318.421C475.645 304.063 513.343 279.062 513.718 278.811L514.086 279.361Z" fill="white" fill-opacity="0.13"/>
<path d="M515.13 275.969C514.76 276.21 477.592 300.171 433.36 313.667C407.363 321.6 384.044 324.42 364.051 322.051C339.023 319.086 319.168 307.939 305.039 288.919C298.191 279.701 294.017 269.734 292.278 258.448C290.728 248.387 291.163 237.493 293.608 225.142C298.15 202.209 309.194 177.419 319.875 153.446C321.656 149.449 323.497 145.315 325.284 141.246C349.225 86.7282 366.819 34.365 319.771 -7.04467C297.257 -26.8604 265.522 -35.1655 225.446 -31.7297C192.795 -28.9303 154.87 -18.4334 112.725 -0.530173C72.6557 16.4908 38.1428 36.1981 16.2458 49.7331C-10.858 66.4867 -26.73 78.7313 -29.3435 82.0748L-29.8646 81.6675C-26.7349 77.6634 -8.76188 64.4133 15.8978 49.1707C37.8143 35.6235 72.3587 15.8987 112.466 -1.13868C154.676 -19.0693 192.669 -29.5832 225.389 -32.3885C265.652 -35.8404 297.554 -27.4803 320.208 -7.54111C331.648 2.52823 339.882 13.8631 344.68 26.1488C349.057 37.3585 350.748 49.4021 349.846 62.9673C348.114 89.0512 336.572 117.187 325.89 141.512C324.102 145.583 322.26 149.717 320.479 153.715C309.813 177.655 298.784 202.411 294.257 225.271C289.134 251.141 292.729 271.24 305.569 288.525C337.325 331.271 392.485 325.448 433.167 313.035C477.307 299.567 514.4 275.655 514.77 275.415L515.13 275.969Z" fill="white" fill-opacity="0.13"/>
<path d="M516.174 272.578C515.81 272.807 479.248 295.678 435.503 308.285C409.792 315.694 386.663 318.162 366.758 315.62C341.842 312.438 321.938 301.359 307.6 282.691C300.684 273.686 296.352 263.959 294.354 252.954C292.574 243.146 292.705 232.533 294.752 220.51C298.554 198.19 308.624 174.123 318.361 150.849C319.966 147.014 321.625 143.049 323.233 139.146C344.965 86.4141 360.58 35.7954 313.581 -3.88283C291.16 -22.8126 259.779 -30.5232 220.312 -26.8005C188.055 -23.7578 150.705 -13.1824 109.301 4.63232C69.5319 21.7432 35.5679 41.3876 14.0786 54.854C-11.2257 70.7109 -28.4543 83.8404 -31.8176 88.1435L-32.3387 87.7362C-28.9406 83.3889 -11.6405 70.1904 13.7276 54.2933C35.2367 40.8146 69.232 21.1522 109.039 4.02476C150.507 -13.8172 187.924 -24.4101 220.25 -27.4592C259.9 -31.199 291.445 -23.437 314.008 -4.38839C325.444 5.26627 333.792 16.1546 338.821 27.9744C343.411 38.7618 345.407 50.3678 344.921 63.4554C344.507 74.6381 342.249 86.8994 338.019 100.94C334.009 114.252 328.604 127.851 323.845 139.398C322.236 143.302 320.576 147.268 318.972 151.104C298.733 199.477 279.616 245.168 308.124 282.288C340.356 324.255 395.084 319.243 435.319 307.649C478.976 295.068 515.458 272.247 515.821 272.018L516.174 272.578Z" fill="white" fill-opacity="0.13"/>
<path d="M517.218 269.187C516.859 269.406 480.907 291.187 437.649 302.903C412.226 309.788 389.287 311.903 369.469 309.189C344.665 305.792 324.71 294.782 310.161 276.464C303.181 267.675 298.691 258.191 296.435 247.47C294.426 237.917 294.25 227.59 295.898 215.899C298.957 194.199 308.046 170.864 316.838 148.296C318.273 144.61 319.758 140.799 321.195 137.05C340.727 86.1085 354.361 37.2374 307.393 -0.720402C256.026 -42.2331 169.46 -17.915 105.886 9.79543C66.4324 26.9923 33.0075 46.5755 11.9153 59.9753C-13.443 76.0851 -30.5248 89.3936 -34.2922 94.2134L-34.8133 93.806C-31.0109 88.9415 -13.8609 75.5671 11.5606 59.417C32.6727 46.0045 66.1292 26.4029 105.622 9.18895C169.364 -18.5945 256.183 -42.9561 307.809 -1.23474C319.243 8.00555 327.708 18.4478 332.97 29.8016C337.774 40.1673 340.076 51.3359 340.007 63.9452C339.949 74.7209 338.128 86.5499 334.441 100.109C330.947 112.956 326.097 126.112 321.813 137.286C320.375 141.037 318.891 144.849 317.454 148.536C299.169 195.477 281.898 239.815 310.68 276.052C343.393 317.24 397.688 313.04 437.476 302.264C480.64 290.574 516.516 268.841 516.873 268.623L517.218 269.187Z" fill="white" fill-opacity="0.13"/>
<path d="M518.262 265.795C517.91 266.002 482.568 286.693 439.798 297.518C414.663 303.88 391.914 305.642 372.184 302.755C347.491 299.142 327.485 288.2 312.723 270.234C305.68 261.663 301.035 252.425 298.521 241.992C296.282 232.698 295.8 222.66 297.046 211.304C299.359 190.233 307.466 167.636 315.306 145.783C316.58 142.233 317.897 138.561 319.169 134.951C336.497 85.8041 348.161 38.6872 301.204 2.43991C249.952 -37.1211 164.849 -12.59 102.48 14.9553C71.9543 28.4371 39.0238 46.2435 9.7545 65.0941C-16.558 82.0406 -32.8057 95.2134 -36.7668 100.281L-37.2879 99.8738C-33.2936 94.7637 -16.9807 81.5264 9.3968 64.5382C38.6941 45.6696 71.657 27.8459 102.213 14.3506C164.746 -13.2671 250.1 -37.8431 301.608 1.91633C313.043 10.7432 321.628 20.7394 327.124 31.6274C332.144 41.5717 334.754 52.3024 335.104 64.4331C335.775 87.7326 327.909 112.154 319.794 135.171C318.52 138.783 317.203 142.455 315.929 146.006C300.326 189.497 284.193 234.468 313.234 269.814C346.434 310.221 400.297 306.834 439.637 296.877C482.315 286.075 517.575 265.432 517.926 265.225L518.262 265.795Z" fill="white" fill-opacity="0.13"/>
<path d="M519.306 262.404C518.96 262.6 484.232 282.2 441.953 292.134C417.107 297.972 394.548 299.381 374.905 296.322C350.322 292.494 330.263 281.621 315.285 264.006C308.185 255.655 303.386 246.667 300.615 236.526C298.147 227.493 297.357 217.748 298.2 206.733C299.765 186.297 306.885 164.448 313.77 143.319C314.888 139.888 316.044 136.341 317.158 132.855C332.292 85.5077 341.986 40.1474 295.016 5.60152C272.895 -10.6683 242.6 -16.5963 204.974 -12.0179C173.9 -8.23668 138.273 2.57462 99.0849 20.1156C68.8266 33.6595 36.3363 51.4512 7.59858 70.2139C-18.6327 87.3401 -34.8275 100.703 -39.2409 106.35L-39.762 105.942C-35.3149 100.253 -19.0577 86.8277 7.23683 69.66C36.0024 50.8788 68.5254 33.0692 98.8143 19.5117C138.063 1.94355 173.754 -8.88549 204.894 -12.6745C242.693 -17.2738 273.146 -11.3042 295.407 5.06858C307.008 13.6007 315.473 22.8857 321.286 33.454C326.524 42.9768 329.444 53.2697 330.212 64.9214C331.689 87.3069 324.884 110.855 317.788 133.056C316.673 136.544 315.517 140.092 314.399 143.524C300.684 185.612 286.502 229.133 315.789 263.577C349.482 303.203 402.912 300.628 441.801 291.49C483.985 281.579 518.633 262.025 518.978 261.829L519.306 262.404Z" fill="white" fill-opacity="0.13"/>
<path d="M520.349 259.013C520.009 259.199 485.898 277.707 444.111 286.75C419.554 292.064 397.186 293.12 377.629 289.888C353.157 285.845 333.043 275.041 317.847 257.778C310.693 249.651 305.744 240.914 302.716 231.069C300.02 222.302 298.923 212.854 299.362 202.183C300.176 182.392 306.306 161.299 312.234 140.901C313.201 137.576 314.2 134.137 315.161 130.759C328.108 85.2174 335.836 41.618 288.828 8.7638C266.817 -6.61952 236.892 -11.955 199.883 -7.09352C169.204 -3.06332 134.151 7.82636 95.6985 25.2739C26.2204 56.7984 -31.5217 99.378 -41.7154 112.419L-42.2365 112.012C-36.4198 104.57 -17.8468 89.9565 5.08054 74.7818C33.329 56.0851 65.414 38.2888 95.4254 24.6718C133.938 7.19747 169.053 -3.71044 199.797 -7.74904C236.974 -12.6327 267.056 -7.25925 289.207 8.22187C300.815 16.3347 309.401 25.1861 315.455 35.2814C320.913 44.3826 324.144 54.2377 325.333 65.4094C327.618 86.889 321.875 109.56 315.797 130.94C314.836 134.32 313.836 137.759 312.87 141.086C301.05 181.755 288.828 223.809 318.343 257.341C352.535 296.184 405.532 294.421 443.971 286.103C485.661 277.081 519.692 258.618 520.031 258.433L520.349 259.013Z" fill="white" fill-opacity="0.13"/>
<path d="M521.392 255.622C521.058 255.796 487.567 273.211 446.272 281.363C422.006 286.153 399.83 286.856 380.358 283.452C355.995 279.193 335.826 268.46 320.409 251.549C313.207 243.648 308.109 235.168 304.827 225.623C301.904 217.126 300.5 207.978 300.533 197.658C300.596 178.521 305.734 158.193 310.703 138.536C311.521 135.297 312.368 131.948 313.178 128.661C324.358 83.2588 329.777 43.1369 282.64 11.9252C260.744 -2.57292 231.192 -7.31634 194.805 -2.17317C164.521 2.10716 130.042 13.076 92.3231 30.4284C62.6293 44.0891 31.0125 61.8541 3.29647 80.4507C-19.3839 95.6685 -38.0234 110.599 -44.1897 118.488L-44.7108 118.08C-38.4096 110.019 -20.1556 95.3899 2.92826 79.9014C30.6724 61.2859 62.322 43.5027 92.0468 29.8277C129.823 12.4483 164.365 1.46151 194.712 -2.8281C231.265 -7.99437 260.971 -3.2163 283.005 11.3739C294.625 19.0674 303.334 27.4846 309.631 37.1067C315.312 45.7863 318.856 55.2025 320.465 65.8938C323.564 86.4754 318.881 108.265 313.82 128.819C313.01 132.109 312.163 135.459 311.344 138.698C301.427 177.93 291.173 218.498 320.898 251.103C355.594 289.162 408.158 288.212 446.144 280.714C487.341 272.582 520.752 255.211 521.084 255.036L521.392 255.622Z" fill="white" fill-opacity="0.13"/>
<path d="M522.434 252.231C522.106 252.395 489.238 268.716 448.437 275.975C424.463 280.24 402.477 280.59 383.091 277.015C358.838 272.541 338.61 261.878 322.971 245.321C315.725 237.65 310.484 229.43 306.948 220.19C303.801 211.966 302.09 203.124 301.718 193.159C301.028 174.684 305.174 155.132 309.182 136.224C309.854 133.055 310.55 129.776 311.209 126.56C320.139 83.0443 323.688 44.6198 276.452 15.087C254.677 1.47275 225.502 -2.68075 189.738 2.7427C159.85 7.27492 125.944 18.3225 88.9584 35.5793C59.5602 49.2959 28.3763 67.0485 1.15111 85.5667C-21.6863 101.101 -40.0085 116.041 -46.6649 124.556L-47.186 124.149C-40.4902 115.583 -22.1111 100.59 0.779383 85.0198C28.033 66.482 59.2495 48.711 88.6789 34.9796C125.721 17.6964 159.689 6.63018 189.639 2.0887C225.564 -3.35906 254.89 0.825592 276.803 14.526C288.437 21.7998 297.273 29.7826 303.815 38.9303C309.721 47.1878 313.58 56.1652 315.611 66.3748C319.528 86.0667 315.905 106.97 311.857 126.694C311.197 129.911 310.502 133.19 309.829 136.361C301.821 174.137 293.539 213.199 323.451 244.866C358.658 282.138 410.788 282.001 448.321 275.323C489.028 268.081 521.811 251.803 522.137 251.639L522.434 252.231Z" fill="white" fill-opacity="0.13"/>
<path d="M523.476 248.84C523.155 248.993 490.911 264.219 450.607 270.585C426.925 274.326 405.131 274.323 385.83 270.575C361.685 265.887 341.398 255.295 325.533 239.092C318.251 231.655 312.871 223.699 309.084 214.768C305.715 206.822 303.7 198.291 302.922 188.687C301.481 170.884 304.634 152.117 307.682 133.968C308.207 130.847 308.749 127.62 309.257 124.457C315.95 82.8311 317.635 46.108 270.265 18.2482C248.617 5.51591 219.823 1.95107 184.684 7.65268C155.194 12.4379 121.859 23.5648 85.6056 40.7247C19.7125 71.9141 -35.8929 113.679 -49.1388 130.625L-49.6599 130.218C-36.3744 113.222 19.3387 71.3596 85.3235 40.127C121.633 22.9408 155.028 11.7951 184.579 7.00007C219.874 1.2732 248.816 4.86574 270.601 17.6781C282.254 24.5319 291.219 32.079 298.008 40.7518C304.142 48.5866 308.316 57.1238 310.77 66.8513C315.515 85.6597 312.815 106.502 309.911 124.562C309.402 127.728 308.86 130.956 308.335 134.078C302.237 170.378 295.931 207.915 326.006 238.629C361.728 275.112 413.426 275.788 450.504 269.931C490.71 263.581 522.872 248.395 523.192 248.243L523.476 248.84Z" fill="white" fill-opacity="0.13"/>
<path d="M524.518 245.448C524.204 245.59 492.588 259.719 452.781 265.192C429.392 268.407 407.79 268.051 388.574 264.132C364.537 259.23 344.189 248.71 328.096 232.863C297.658 202.891 302.007 166.738 306.213 131.775C306.585 128.681 306.97 125.482 307.323 122.348C311.628 84.0807 311.561 47.5652 264.08 21.4095C242.563 9.55662 214.155 6.57781 179.645 12.5556C150.552 17.5952 117.789 28.8015 82.2656 45.8637C53.4831 59.6884 23.1574 77.4199 -3.12457 95.7923C-25.9275 111.732 -44.0539 127.022 -51.6131 136.693L-52.1342 136.286C-44.5369 126.566 -26.3571 111.226 -3.50344 95.2501C22.807 76.8577 53.1654 59.107 81.9792 45.2675C117.558 28.1789 150.379 16.9538 179.532 11.9037C214.194 5.89941 242.747 8.90278 264.399 20.83C276.075 27.2618 285.172 34.3726 292.209 42.5691C298.573 49.9807 303.066 58.077 305.943 67.3205C311.525 85.2554 309.921 105.167 307.98 122.422C307.627 125.558 307.242 128.758 306.87 131.854C302.683 166.658 298.354 202.647 328.56 232.392C364.805 268.082 416.069 269.572 452.691 264.537C492.399 259.078 523.932 244.987 524.246 244.845L524.518 245.448Z" fill="white" fill-opacity="0.13"/>
<path d="M525.559 242.058C525.251 242.189 494.266 255.22 454.959 259.798C431.864 262.488 410.454 261.778 391.322 257.688C367.392 252.573 346.982 242.125 330.659 226.636C300.129 197.666 302.497 163.087 304.786 129.648C304.998 126.557 305.216 123.361 305.404 120.235C307.585 83.7972 305.594 49.062 257.894 24.5718C236.514 13.5953 208.496 11.1994 174.618 17.4512C145.923 22.7467 113.731 34.0328 78.936 50.9968C50.4726 64.8736 20.5725 82.5971 -5.25646 100.902C-27.8732 116.931 -46.1278 132.579 -54.0875 142.762L-54.6086 142.355C-46.6116 132.124 -28.3051 116.426 -5.63878 100.362C20.2186 82.0367 50.1517 64.2938 78.6463 50.4017C113.495 33.4118 145.745 22.1067 174.498 16.8003C208.523 10.5213 236.683 12.9379 258.196 23.9829C269.899 29.9914 279.13 36.6644 286.418 44.3834C293.016 51.3706 297.827 59.0249 301.128 67.7836C307.56 84.8522 307.048 103.828 306.064 120.274C305.876 123.403 305.657 126.601 305.446 129.692C303.167 162.98 300.81 197.4 331.114 226.155C367.887 261.05 418.717 263.353 454.882 259.141C494.096 254.574 524.993 241.579 525.301 241.449L525.559 242.058Z" fill="white" fill-opacity="0.13"/>
<path d="M526.601 238.667C526.299 238.787 495.948 250.718 457.141 254.401C434.341 256.564 413.122 255.501 394.075 251.24C370.251 245.911 349.777 235.537 333.222 220.407C302.645 192.463 303.038 159.484 303.419 127.591C303.456 124.477 303.494 121.258 303.501 118.112C303.58 83.5084 299.679 50.5571 251.708 27.7331C230.471 17.6288 202.848 15.8128 169.605 22.3358C141.309 27.8881 109.687 39.2548 75.619 56.1197C39.5564 73.9716 10.5771 93.1026 -7.38329 106.008C-30.1521 122.368 -48.0768 137.976 -56.5616 148.831L-57.0827 148.424C-48.561 137.522 -30.5868 121.866 -7.76927 105.47C10.2111 92.551 39.2227 73.3988 75.3256 55.5267C109.446 38.6358 141.124 27.2502 169.478 21.6867C202.863 15.136 230.625 16.9693 251.992 27.1359C274.111 37.6594 288.613 51.1038 296.327 68.2371C303.625 84.4463 304.199 102.481 304.163 118.114C304.156 121.263 304.117 124.484 304.08 127.599C303.701 159.347 303.31 192.175 333.668 219.919C370.975 254.014 421.37 257.131 457.078 253.742C495.792 250.069 526.055 238.172 526.356 238.052L526.601 238.667Z" fill="white" fill-opacity="0.13"/>
<path d="M527.641 235.275C527.345 235.384 497.631 246.212 459.326 248.999C436.822 250.636 415.796 249.219 396.833 244.788C373.115 239.246 352.576 228.947 335.785 214.177C305.213 187.286 303.647 155.932 302.133 125.61C301.975 122.445 301.811 119.172 301.616 115.98C299.616 83.2115 293.821 52.0466 245.523 30.8932C224.434 21.6569 197.21 20.417 164.605 27.2081C136.708 33.0188 105.657 44.4658 72.3135 61.2315C36.678 79.15 8.15057 98.2452 -9.50604 111.109C-32.0921 127.564 -50.1451 143.525 -59.036 154.899L-59.5571 154.492C-50.6299 143.071 -32.5289 127.064 -9.89533 110.574C7.78117 97.6959 36.3409 78.5792 72.0165 60.6409C105.411 43.8494 136.517 32.3831 164.47 26.5608C197.212 19.7411 224.572 20.9949 245.788 30.2875C267.989 40.0107 282.954 52.5686 291.539 68.6784C298.899 82.4898 301.154 97.5605 302.277 115.94C302.472 119.135 302.635 122.41 302.793 125.577C304.301 155.762 305.859 186.974 336.222 213.681C374.068 246.971 424.03 250.903 459.278 248.339C497.486 245.56 527.117 234.763 527.412 234.654L527.641 235.275Z" fill="white" fill-opacity="0.13"/>
<path d="M528.68 231.885C528.391 231.983 499.317 241.707 461.515 243.596C439.308 244.706 418.475 242.935 399.594 238.334C375.982 232.58 355.376 222.357 338.347 207.951C307.842 182.142 304.341 152.44 300.955 123.715C300.572 120.467 300.176 117.108 299.748 113.838C295.696 82.9068 288.027 53.5301 239.338 34.0562C218.402 25.6824 191.58 25.0144 159.617 32.0705C132.12 38.1408 101.638 49.6691 69.0187 66.335C7.85731 97.5834 -43.8815 138.416 -61.5109 160.97L-62.0319 160.562C-52.6996 148.623 -34.4701 132.263 -12.018 115.676C12.9067 97.2624 40.8246 79.997 68.7176 65.7457C101.387 49.0542 131.922 37.5069 159.475 31.4245C191.569 24.3392 218.522 25.018 239.584 33.4419C288.605 53.0488 296.325 82.6184 300.403 113.752C300.832 117.026 301.228 120.387 301.612 123.637C304.982 152.235 308.468 181.806 338.774 207.446C377.167 239.927 426.694 244.674 461.482 242.935C499.193 241.051 528.18 231.357 528.468 231.259L528.68 231.885Z" fill="white" fill-opacity="0.13"/>
<path d="M529.72 228.493C529.437 228.58 501.005 237.196 463.709 238.186C441.799 238.768 421.159 236.644 402.361 231.873C378.854 225.907 358.18 215.762 340.911 201.721C310.548 177.031 305.146 149.009 299.922 121.909C299.273 118.542 298.602 115.06 297.896 111.68C291.826 82.5846 282.306 54.9959 233.155 37.2155C212.376 29.6988 185.96 29.5974 154.642 36.9145C127.545 43.2459 97.6323 54.8558 65.7354 71.4219C4.97124 102.981 -45.5168 143.41 -63.9847 167.037L-64.5058 166.63C-54.6249 153.989 -36.7365 137.702 -14.1358 120.77C10.3758 102.406 37.8894 85.1387 65.4301 70.835C97.3761 54.2436 127.341 42.6145 154.492 36.2707C185.936 28.924 212.478 29.0324 233.38 36.5936C255.779 44.6967 271.683 55.4679 281.999 69.5222C291.548 82.5318 295.594 97.4076 298.544 111.545C299.25 114.93 299.922 118.414 300.571 121.784C305.773 148.768 311.152 176.67 341.328 201.208C380.272 232.875 429.365 238.436 463.691 237.525C500.898 236.538 529.243 227.948 529.525 227.861L529.72 228.493Z" fill="white" fill-opacity="0.13"/>
<path d="M530.758 225.103C530.482 225.179 502.695 232.684 465.905 232.774C444.294 232.827 423.847 230.349 405.132 225.41C381.729 219.233 360.985 209.167 343.474 195.493C329.989 184.962 319.881 172.842 312.571 158.44C306.106 145.703 302.534 132.741 299.079 120.206C298.107 116.68 297.102 113.034 296.06 109.508C288.008 82.2455 276.665 56.4442 226.971 40.3772C206.352 33.7109 180.347 34.1713 149.677 41.7454C122.981 48.3385 93.6369 60.0306 62.4608 76.4971C2.74748 108.036 -47.5935 148.971 -66.4593 173.106L-66.9804 172.699C-56.6882 159.532 -38.6722 142.898 -16.2506 125.861C7.85895 107.541 34.9699 90.2687 62.1518 75.9119C93.3753 59.4203 122.77 47.709 149.519 41.103C180.309 33.4988 206.436 33.0428 227.175 39.7476C249.694 47.0284 266.072 56.8981 277.245 69.9205C287.715 82.1232 292.781 96.0681 296.695 109.32C297.738 112.852 298.744 116.501 299.716 120.029C306.701 145.372 313.924 171.577 343.881 194.971C383.383 225.819 432.04 232.195 465.903 232.112C502.606 232.023 530.308 224.54 530.583 224.465L530.758 225.103Z" fill="white" fill-opacity="0.13"/>
<path d="M531.796 221.711C531.526 221.776 504.387 228.169 468.105 227.356C446.793 226.879 426.54 224.048 407.907 218.94C384.608 212.552 363.793 202.568 346.038 189.264C332.711 179.278 322.333 167.851 314.312 154.331C307.224 142.382 302.782 130.299 298.486 118.613C297.115 114.884 295.698 111.028 294.24 107.316C284.248 81.8804 271.112 57.8629 220.787 43.5373C169.115 28.8283 97.365 61.0433 59.1947 81.5555C6.58204 109.829 -46.1063 149.971 -68.9335 179.175L-69.4546 178.767C-58.7509 165.074 -40.606 148.09 -18.3621 130.945C5.35603 112.663 32.0665 95.3826 58.8816 80.9725C89.3842 64.581 118.209 52.7864 144.555 45.9167C174.688 38.0599 200.397 37.0451 220.969 42.9009C243.621 49.3492 260.478 58.3115 272.501 70.3C283.927 81.692 289.997 94.7068 294.856 107.074C296.317 110.793 297.735 114.652 299.107 118.385C307.809 142.056 316.807 166.534 346.435 188.735C386.498 218.755 434.721 225.948 468.12 226.695C504.311 227.505 531.373 221.132 531.642 221.068L531.796 221.711Z" fill="white" fill-opacity="0.13"/>
<path d="M532.833 218.32C532.569 218.373 506.081 223.649 470.308 221.934C449.296 220.926 429.236 217.741 410.686 212.464C387.491 205.868 366.602 195.966 348.601 183.035C335.494 173.619 324.905 162.911 316.231 150.297C308.57 139.159 303.31 127.966 298.222 117.142C296.264 112.976 294.415 109.042 292.433 105.102C281.023 82.4236 265.615 59.2334 214.605 46.6968C163.137 34.048 93.1023 66.2661 55.9362 86.5967C3.44283 115.312 -47.733 154.955 -71.4081 185.243L-71.9292 184.836C-60.8136 170.616 -42.5388 153.28 -20.4711 136.023C2.86552 117.773 29.1769 100.481 55.6188 86.0166C85.4018 69.7247 113.657 57.8467 139.6 50.7123C169.071 42.6074 194.36 41.0404 214.763 46.0547C237.563 51.6583 254.901 59.7062 267.765 70.6586C280.186 81.2324 287.245 93.3189 293.024 104.805C295.01 108.752 296.861 112.691 298.821 116.861C309.147 138.831 319.825 161.549 348.987 182.498C389.618 211.685 437.406 219.694 470.34 221.273C506.031 222.984 532.438 217.725 532.701 217.671L532.833 218.32Z" fill="white" fill-opacity="0.13"/>
<path d="M533.868 214.928C533.611 214.97 507.776 219.126 472.514 216.506C451.804 214.967 431.937 211.427 413.468 205.983C390.376 199.178 369.414 189.361 351.165 176.806C338.352 167.991 327.627 158.029 318.377 146.351C310.215 136.047 304.203 125.759 298.39 115.81C295.766 111.318 293.286 107.076 290.638 102.864C277.464 81.916 260.263 60.5677 208.422 49.8566C157.153 39.2638 88.8399 71.4765 52.6825 91.6209C1.1449 120.334 -49.7178 160.397 -73.8827 191.312L-74.4038 190.905C-62.7087 175.943 -44.7878 158.719 -22.5784 141.094C0.386527 122.87 26.3001 105.563 52.3605 91.0435C81.4248 74.8508 109.111 62.8883 134.649 55.4882C163.456 47.141 188.322 45.0285 208.556 49.2091C231.52 53.9538 249.34 61.0799 263.036 70.9954C276.53 80.7648 284.844 92.4098 291.198 102.512C293.852 106.733 296.334 110.98 298.961 115.476C310.784 135.711 323.01 156.633 351.54 176.261C392.743 204.608 440.095 213.434 472.563 215.846C507.741 218.46 533.505 214.318 533.761 214.276L533.868 214.928Z" fill="white" fill-opacity="0.13"/>
<path d="M534.903 211.536C534.653 211.567 509.473 214.599 474.723 211.072C454.314 209.001 434.642 205.106 416.254 199.497C393.264 192.483 372.228 182.753 353.729 170.577C325.934 152.284 311.688 132.278 299.12 114.627C295.641 109.742 292.356 105.127 288.852 100.599C270.692 77.1264 249.868 60.9793 202.24 53.0162C164.383 46.6868 110.115 62.1748 49.4325 96.6267C-1.93647 125.791 -51.3116 165.34 -76.357 197.381L-76.8781 196.973C-51.7838 164.869 -2.33205 125.255 49.1058 96.0516C77.4528 79.9578 104.57 67.91 129.703 60.2431C157.841 51.6597 182.283 49.0086 202.349 52.3637C225.491 56.2329 243.796 62.4295 258.31 71.3079C272.891 80.2269 282.196 90.9152 289.375 100.194C292.887 104.733 296.176 109.352 299.659 114.243C312.194 131.847 326.401 151.799 354.093 170.025C395.872 197.523 442.789 207.166 474.79 210.414C509.461 213.933 534.573 210.91 534.822 210.879L534.903 211.536Z" fill="white" fill-opacity="0.13"/>
<path d="M535.937 208.144C535.693 208.164 511.171 210.068 476.935 205.633C456.827 203.028 437.35 198.779 419.043 193.003C396.155 185.783 375.043 176.142 356.292 164.349C329.608 147.566 314.187 129.527 300.582 113.611C296.003 108.253 291.677 103.193 287.072 98.3049C267.456 77.4809 244.471 62.3474 196.058 56.1754C158.333 51.3663 105.107 67.5035 46.1833 101.614C-4.98144 131.234 -52.8845 170.255 -78.8317 203.45L-79.3527 203.043C-66.8186 187.007 -48.6426 169.086 -26.7896 151.217C-4.54002 133.022 20.579 115.672 45.8521 101.042C73.4825 85.0466 100.03 72.9129 124.758 64.9782C152.223 56.1648 176.24 52.9822 196.142 55.5193C219.477 58.494 238.268 63.7526 253.587 71.5951C269.393 79.6865 280.042 89.877 287.554 97.851C292.17 102.751 296.5 107.817 301.085 113.18C314.66 129.061 330.046 147.06 356.644 163.789C399.004 190.43 445.486 200.892 477.02 204.977C511.182 209.402 535.641 207.504 535.884 207.484L535.937 208.144Z" fill="white" fill-opacity="0.13"/>
<path d="M536.971 204.751C536.733 204.759 512.871 205.532 479.149 200.186C459.345 197.047 440.061 192.443 421.835 186.502C399.05 179.075 377.861 169.526 358.857 158.119C333.591 142.954 317.333 126.919 302.99 112.772C296.99 106.853 291.322 101.263 285.296 95.978C263.786 77.1108 239.327 63.6589 189.877 59.3334C152.274 56.0442 100.088 72.8239 42.9346 106.582C-7.22906 136.211 -54.8349 175.654 -81.3058 209.519L-81.8269 209.112C-55.3086 175.186 -7.63184 135.681 42.5978 106.013C69.5129 90.1152 95.4914 77.8948 119.812 69.6909C146.601 60.6541 170.194 56.9477 189.935 58.6746C213.476 60.7336 232.752 65.0453 248.864 71.8548C262.122 77.4586 273.492 84.745 285.732 95.4807C291.772 100.779 297.447 106.376 303.454 112.301C317.771 126.422 333.999 142.428 359.198 157.552C402.141 183.328 448.187 194.609 479.252 199.533C512.906 204.868 536.711 204.098 536.947 204.09L536.971 204.751Z" fill="white" fill-opacity="0.13"/>
<path d="M538.002 201.357C537.772 201.354 514.571 200.991 481.365 194.733C461.863 191.058 442.774 186.099 424.629 179.994C401.945 172.362 380.679 162.907 361.421 151.89C337.942 138.46 321.294 124.47 306.607 112.127C298.773 105.544 291.374 99.3262 283.518 93.6186C263.319 78.9434 237.246 65.0157 183.695 62.4913C146.198 60.7238 95.0527 78.1398 39.6805 111.531C-10.2164 141.621 -56.37 180.52 -83.7804 215.587L-84.3015 215.18C-70.9237 198.065 -52.4933 179.437 -31.0026 161.311C-9.43407 143.118 14.8898 125.709 39.3389 110.965C65.5393 95.1649 90.9488 82.8572 114.861 74.3831C140.97 65.1306 164.139 60.9073 183.726 61.8308C207.486 62.9506 227.246 66.3055 244.137 72.087C258.351 76.9524 270.616 83.428 283.906 93.0836C291.781 98.8049 299.189 105.03 307.032 111.621C321.698 123.946 338.322 137.915 361.749 151.316C405.279 176.217 450.89 188.318 481.487 194.083C514.632 200.329 537.781 200.693 538.011 200.696L538.002 201.357Z" fill="white" fill-opacity="0.13"/>
<path d="M539.033 197.963C538.809 197.949 516.271 196.446 483.582 189.274C464.384 185.062 445.49 179.748 427.425 173.48C404.842 165.643 383.498 156.284 363.985 145.662C342.729 134.091 326.267 122.187 311.743 111.684C301.556 104.318 291.935 97.3601 281.734 91.2264C259.99 78.1515 232.315 66.0036 177.514 65.6493C140.107 65.4076 89.999 83.4536 36.4211 116.463C-12.4368 146.564 -58.2972 185.889 -86.2552 221.657L-86.7763 221.249C-58.7725 185.423 -12.847 146.04 36.074 115.9C61.5611 100.197 86.401 87.801 109.903 79.0558C135.327 69.5954 158.076 64.8622 177.518 64.9879C201.501 65.1429 221.744 67.5318 239.403 72.291C254.393 76.3312 267.953 82.1677 282.075 90.6596C292.3 96.808 301.933 103.774 312.131 111.149C326.639 121.64 343.083 133.531 364.301 145.081C408.422 169.099 453.596 182.019 483.724 188.628C516.36 195.788 538.852 197.289 539.075 197.303L539.033 197.963Z" fill="white" fill-opacity="0.13"/>
<path d="M540.064 194.567C539.847 194.542 517.974 191.894 485.802 183.807C466.908 179.057 448.209 173.388 430.224 166.956C407.742 158.916 386.319 149.656 366.55 139.432C348.021 129.849 333.143 120.495 318.755 111.449C305.573 103.16 293.122 95.332 279.942 88.7997C248.546 73.2393 216.065 67.2598 171.334 68.8058C133.998 70.0961 84.9245 88.7662 33.154 121.377C-15.364 151.938 -59.7887 190.701 -88.7291 227.725L-89.2502 227.318C-75.0227 209.116 -56.341 189.773 -35.2246 171.379C-14.3063 153.157 9.21639 135.673 32.8011 120.817C57.5763 105.211 81.846 92.7262 104.936 83.7088C129.672 74.0489 152.003 68.8125 171.31 68.145C195.518 67.3082 216.239 68.7215 234.66 72.4654C250.636 75.7127 265.118 80.7146 280.236 88.2073C293.445 94.7543 305.91 102.592 319.107 110.889C333.483 119.928 348.349 129.275 366.854 138.845C411.567 161.969 456.306 175.71 485.963 183.166C518.09 191.242 539.925 193.885 540.142 193.911L540.064 194.567Z" fill="white" fill-opacity="0.13"/>
<path d="M541.093 191.17C540.883 191.133 519.676 187.337 488.022 178.331C458.809 170.02 414.466 155.444 369.115 133.202C353.879 125.73 340.732 118.458 328.018 111.426C311.07 102.053 295.062 93.1996 278.137 86.3408C244.691 72.787 210.902 68.4865 165.153 71.9615C127.867 74.7938 79.8247 94.0822 29.8757 126.274C-17.5558 156.844 -61.6873 196.033 -91.2032 233.793L-91.7243 233.386C-62.1647 195.569 -17.9737 156.326 29.5174 125.718C79.5574 93.4677 127.709 74.1423 165.103 71.3021C189.526 69.4469 210.722 69.8755 229.904 72.6117C246.872 75.0323 262.278 79.2001 278.385 85.7278C295.347 92.6016 311.372 101.464 328.338 110.848C341.045 117.876 354.185 125.143 369.406 132.608C414.713 154.829 459.016 169.392 488.203 177.695C519.822 186.691 540.998 190.482 541.209 190.519L541.093 191.17Z" fill="white" fill-opacity="0.13"/>
<path d="M542.122 187.772C541.918 187.723 521.378 182.775 490.243 172.849C461.508 163.689 417.613 148.294 371.679 126.972C360.363 121.72 349.959 116.588 339.898 111.627C317.357 100.51 297.891 90.9096 276.314 83.8508C241.26 72.383 205.071 69.6894 158.972 75.117C121.714 79.5037 74.6984 99.4059 26.5845 131.158C-20.4228 162.18 -63.1328 200.785 -93.6778 239.862L-94.1989 239.455C-78.8976 219.879 -60.4818 200.354 -39.463 181.422C-18.878 162.881 3.22098 145.784 26.2203 130.606C74.4188 98.7984 121.537 78.8586 158.894 74.4604C183.515 71.5615 205.182 70.9964 225.131 72.7316C242.842 74.2722 259.651 77.7039 276.52 83.2224C298.141 90.2956 317.627 99.9057 340.19 111.033C350.248 115.994 360.648 121.123 371.957 126.372C417.86 147.679 461.727 163.065 490.443 172.219C521.556 182.137 542.072 187.08 542.276 187.129L542.122 187.772Z" fill="white" fill-opacity="0.13"/>
<path d="M543.15 184.373C542.953 184.313 523.08 178.208 492.463 167.36C464.208 157.349 420.761 141.135 374.244 120.743C367.536 117.803 361.033 114.896 354.744 112.085C326.315 99.3768 301.762 88.4012 274.472 81.3336C237.296 71.7052 199.768 70.761 152.791 78.2728C115.54 84.2297 69.5445 104.741 23.2788 136.03C-22.5845 167.046 -64.9995 206.076 -96.1522 245.931L-96.6733 245.524C-65.4791 205.616 -23.0108 166.536 22.9086 135.482C69.2526 104.141 115.342 83.5915 152.687 77.6198C177.479 73.6555 199.608 72.088 220.34 72.8274C239.012 73.4934 256.773 76.0665 274.638 80.6935C301.981 87.7752 326.557 98.7608 355.015 111.481C361.302 114.292 367.804 117.198 374.509 120.138C421.009 140.521 464.439 156.729 492.684 166.737C523.286 177.58 543.147 183.681 543.344 183.741L543.15 184.373Z" fill="white" fill-opacity="0.13"/>
<path d="M544.412 180.353L544.178 180.972C543.988 180.9 524.782 173.634 494.684 161.862C466.909 150.998 423.913 133.965 376.809 114.513L372.859 112.88C337.445 98.2455 306.861 85.6063 272.609 78.7886C233.742 71.0527 193.705 71.8909 146.61 81.4269C109.342 88.973 64.3628 110.091 19.9571 140.89C-24.7388 171.89 -66.8526 211.35 -98.6263 251.999L-99.1474 251.592C-82.9638 230.888 -64.3166 210.653 -43.7231 191.448C-23.7451 172.817 -2.44664 155.624 19.5803 140.347C41.5252 125.126 63.51 112.279 84.924 102.163C106.854 91.8033 127.565 84.6086 146.479 80.7787C171.407 75.7314 193.993 73.1538 215.527 72.8989C235.139 72.6668 253.853 74.3812 272.738 78.14C307.055 84.9705 337.666 97.621 373.112 112.269L377.062 113.901C424.161 133.352 467.153 150.384 494.926 161.246C525.019 173.016 544.222 180.281 544.412 180.353Z" fill="white" fill-opacity="0.13"/>
<path d="M545.48 176.968L545.206 177.57C545.022 177.486 526.482 169.055 496.904 156.357C469.605 144.638 427.053 126.783 379.373 108.283C344.094 94.5939 309.236 81.8414 270.72 76.2219C229.54 70.214 188.139 72.87 140.429 84.581C102.584 93.8703 59.771 115.02 16.6173 145.743C-27.515 177.163 -68.2213 216.005 -101.101 258.069L-101.622 257.661C-68.7038 215.548 -27.95 176.661 16.2337 145.204C37.4787 130.079 58.8904 117.141 79.8745 106.749C101.089 96.2431 121.409 88.5686 140.271 83.9389C188.067 72.2068 229.549 69.5469 270.815 75.5676C309.4 81.1971 344.296 93.9634 379.613 107.666C427.302 126.17 469.861 144.028 497.166 155.75C526.75 168.45 545.296 176.884 545.48 176.968Z" fill="white" fill-opacity="0.13"/>
<path d="M546.548 173.583L546.235 174.165C546.058 174.07 528.182 164.469 499.125 150.844C472.302 138.266 430.198 119.592 381.939 102.052C348.077 89.7445 310.934 77.7835 268.806 73.6347C225.778 69.397 181.764 74.0089 134.247 87.734C96.3498 98.6805 54.513 120.416 13.2597 150.589C-29.6334 181.962 -70.0344 221.226 -103.576 264.137L-104.097 263.729C-70.5186 220.772 -30.0724 181.464 12.8692 150.055C54.1841 119.836 96.0925 98.0663 134.064 87.0986C159.139 79.8555 182.613 75.2397 205.828 72.9872C227.233 70.9102 247.855 70.9065 268.87 72.9764C287.515 74.8128 306.377 78.2914 326.533 83.6116C342.992 87.956 360.669 93.6179 382.164 101.43C430.447 118.979 472.57 137.662 499.405 150.245C528.481 163.879 546.371 173.488 546.548 173.583Z" fill="white" fill-opacity="0.13"/>
<path d="M547.615 170.201L547.263 170.761C547.093 170.654 529.881 159.879 501.342 145.324C474.998 131.888 433.342 112.393 384.503 95.8222C340.058 80.7423 303.777 73.0971 266.865 71.0325C221.293 68.4839 175.891 74.9785 128.065 90.8874C90.1041 103.515 49.2377 125.834 9.88322 155.433C-32.3337 187.184 -71.3393 225.8 -106.05 270.206L-106.571 269.799C-89.0336 247.362 -70.0555 226.055 -50.1643 206.467C-31.0524 187.647 -10.9833 170.299 9.48554 154.904C48.8964 125.264 89.8284 102.91 127.856 90.26C175.763 74.3242 221.245 67.8189 266.901 70.3725C286.799 71.4852 306.639 74.2791 327.554 78.9134C345.34 82.854 364.037 88.1802 384.716 95.1961C433.592 111.78 475.279 131.289 501.643 144.735C530.21 159.304 547.444 170.094 547.615 170.201Z" fill="white" fill-opacity="0.13"/>
<path d="M548.682 166.819L548.293 167.355C548.129 167.236 531.58 155.282 503.559 139.796C477.692 125.499 436.484 105.184 387.068 89.5918C344.088 76.0308 304.125 69.1044 264.896 68.4176C216.656 67.5724 169.876 75.9537 121.883 94.0401C83.3117 108.575 44.4872 130.86 6.48797 160.274C-34.4063 191.93 -73.1021 230.958 -108.524 276.275L-109.045 275.867C-73.5893 230.507 -34.8546 191.441 6.08323 159.751C44.1347 130.297 83.0167 107.98 121.65 93.4213C146.362 84.1082 171.386 77.2458 196.025 73.0244C218.775 69.1267 241.951 67.3542 264.908 67.7563C304.201 68.4443 344.225 75.3806 387.267 88.9611C436.735 104.569 477.985 124.905 503.879 139.217C531.939 154.725 548.518 166.7 548.682 166.819Z" fill="white" fill-opacity="0.13"/>
<path d="M549.747 163.439L549.324 163.948C549.109 163.769 527.387 145.829 490.606 125.558C456.663 106.852 402.589 82.2789 337.736 71.4469C223.185 52.3131 52.347 73.37 -110.999 282.344L-111.52 281.936C-73.7775 233.651 -33.6411 192.818 7.77439 160.571C45.4305 131.251 84.9898 108.367 125.354 92.554C193.341 65.9201 264.833 58.5991 337.845 70.7944C366.526 75.5849 395.513 83.4361 424 94.1292C446.788 102.684 469.311 113.066 490.941 124.987C527.772 145.288 549.531 163.26 549.747 163.439Z" fill="white" fill-opacity="0.13"/>
</g>
</g>
<defs>
<clipPath id="clip0_12457_183834">
<rect width="1130" height="150" fill="white"/>
</clipPath>
</defs>
</svg>
